<svg width="210" height="265" viewBox="0 0 210 265" fill="none" xmlns="http://www.w3.org/2000/svg">
<g clip-path="url(#clip0_32_4)">
<path d="M54.1853 259.423C73.1853 265.923 87.987 263.76 168.185 263.76C168.974 238.623 168.921 213.612 163.307 189.083C157.694 164.572 149.068 141.152 137.412 118.858C129.987 104.681 120.357 89.8961 105.526 82.6197C98.4243 79.1335 90.0494 78.4362 82.2125 78.0966C74.0707 77.7569 65.9827 78.3111 57.9665 79.795C20.1853 89.4494 -6.10352e-05 116.466 -6.10352e-05 116.466C-6.10352e-05 116.466 -6.10352e-05 121.969 -6.10352e-05 192.513C4.6853 243.044 54.1853 259.423 54.1853 259.423Z" fill="black"/>
<path d="M108.87 167.159C108.87 169.059 108.937 170.959 109.09 172.824C109.242 174.688 109.461 176.516 109.749 178.271C110.036 180.027 110.391 181.71 110.813 183.285C111.236 184.877 111.709 186.343 112.25 187.683C112.79 189.04 113.365 190.235 114.007 191.302C114.633 192.352 115.292 193.239 116.001 193.981C116.694 194.705 117.421 195.248 118.164 195.628C118.908 196.008 119.668 196.189 120.429 196.189C121.189 196.189 121.933 196.008 122.677 195.628C123.42 195.248 124.147 194.705 124.857 193.981C125.549 193.239 126.208 192.352 126.851 191.302C127.476 190.235 128.067 189.04 128.591 187.683C129.132 186.343 129.622 184.877 130.028 183.285C130.45 181.71 130.822 180.027 131.109 178.271C131.397 176.516 131.616 174.688 131.768 172.824C131.904 170.959 131.988 169.059 131.988 167.159C131.988 165.258 131.904 163.358 131.768 161.494C131.616 159.63 131.397 157.82 131.109 156.046C130.822 154.291 130.45 152.625 130.028 151.033C129.622 149.44 129.132 147.974 128.591 146.635C128.067 145.296 127.476 144.083 126.851 143.033C126.208 141.965 125.549 141.079 124.857 140.336C124.147 139.613 123.42 139.07 122.677 138.689C121.933 138.328 121.189 138.128 120.429 138.128C119.668 138.128 118.908 138.328 118.164 138.689C117.421 139.07 116.694 139.613 116.001 140.336C115.292 141.079 114.633 141.965 114.007 143.033C113.365 144.083 112.79 145.296 112.25 146.635C111.709 147.974 111.236 149.44 110.813 151.033C110.391 152.625 110.036 154.291 109.749 156.046C109.461 157.82 109.242 159.63 109.09 161.494C108.937 163.358 108.87 165.258 108.87 167.159Z" fill="white"/>
<path d="M64.1715 166.969C64.1715 168.87 64.256 170.752 64.3912 172.635C64.5433 174.499 64.763 176.309 65.0503 178.082C65.3376 179.838 65.7094 181.503 66.115 183.096C66.5375 184.67 67.0276 186.136 67.5684 187.494C68.0923 188.833 68.6838 190.046 69.3091 191.096C69.9513 192.163 70.6104 193.05 71.3033 193.792C72.0131 194.516 72.7398 195.059 73.4834 195.439C74.227 195.801 74.9706 196 75.7311 196C76.4916 196 77.2521 195.801 77.9957 195.439C78.7393 195.059 79.466 194.516 80.159 193.792C80.8519 193.05 81.5279 192.163 82.1532 191.096C82.7954 190.046 83.37 188.833 83.9108 187.494C84.4516 186.136 84.9248 184.67 85.3473 183.096C85.7698 181.503 86.1247 179.838 86.412 178.082C86.6993 176.309 86.919 174.499 87.0711 172.635C87.2232 170.752 87.2908 168.87 87.2908 166.969C87.2908 165.051 87.2232 163.169 87.0711 161.304C86.919 159.44 86.6993 157.612 86.412 155.857C86.1247 154.101 85.7698 152.418 85.3473 150.843C84.9248 149.25 84.4516 147.784 83.9108 146.445C83.37 145.088 82.7954 143.893 82.1532 142.825C81.5279 141.775 80.8519 140.871 80.159 140.147C79.466 139.423 78.7393 138.862 77.9957 138.5C77.2521 138.119 76.4916 137.938 75.7311 137.938C74.9706 137.938 74.227 138.119 73.4834 138.5C72.7398 138.862 72.0131 139.423 71.3033 140.147C70.6104 140.871 69.9513 141.775 69.3091 142.825C68.6838 143.893 68.0923 145.088 67.5684 146.445C67.0276 147.784 66.5375 149.25 66.115 150.843C65.7094 152.418 65.3376 154.101 65.0503 155.857C64.763 157.612 64.5433 159.44 64.3912 161.304C64.256 163.169 64.1715 165.051 64.1715 166.969Z" fill="white"/>
</g>
<defs>
<clipPath id="clip0_32_4">
<rect width="210" height="264.163" fill="white" transform="matrix(-1 0 0 1 210 0)"/>
</clipPath>
</defs>
</svg>
