<svg width="216" height="216" viewBox="0 0 216 216" fill="none" xmlns="http://www.w3.org/2000/svg">
<mask id="mask0_8_304" style="mask-type:luminance" maskUnits="userSpaceOnUse" x="61" y="33" width="94" height="150">
<path d="M61.1707 33.4082H154.915V182.817H61.1707V33.4082Z" fill="white"/>
</mask>
<g mask="url(#mask0_8_304)">
<path fill-rule="evenodd" clip-rule="evenodd" d="M128.014 68.9314C105.579 95.0606 84.0036 149.344 70.1188 157.149C70.0401 157.563 69.9591 157.973 69.8848 158.378C69.2053 162.052 68.7126 165.463 68.3166 168.478C67.9161 171.484 67.5336 174.103 67.2231 176.236C66.9171 178.365 66.5503 179.985 66.2533 181.065C65.9608 182.142 65.7358 182.685 65.7358 182.685C65.6931 182.775 65.5806 182.788 65.4771 182.709C65.4141 182.655 65.3668 182.581 65.3488 182.511C65.3488 182.511 65.1936 181.798 65.0653 180.527C64.9393 179.26 64.8313 177.429 64.9438 175.21C65.0563 172.992 65.2588 170.296 65.6841 167.295C66.1071 164.3 66.6966 160.909 67.4076 157.262C70.8771 139.462 76.9251 121.971 85.0723 105.701C89.4193 97.0249 94.5201 88.4096 100.12 80.3411C102.697 76.6286 105.498 72.9206 108.367 69.3409C109.732 67.6354 111.145 65.9636 112.52 64.4179C113.908 62.8586 115.337 61.3669 116.707 59.9719C117.389 59.2744 118.087 58.5926 118.775 57.9379C119.457 57.2786 120.125 56.6374 120.805 56.0299C122.15 54.8149 123.469 53.6606 124.731 52.6099C127.255 50.5039 129.582 48.7376 131.555 47.3381C135.502 44.5369 138.022 43.0991 138.022 43.0991C138.022 43.0991 137.367 43.4389 136.19 44.1116C135.018 44.7844 133.308 45.8036 131.26 47.1604C129.206 48.5171 126.751 50.2271 124.135 52.2836C122.825 53.3119 121.459 54.4459 120.051 55.6384C119.349 56.2369 118.656 56.8736 117.94 57.5171C117.229 58.1629 116.505 58.8379 115.789 59.5241C114.352 60.8899 112.887 62.3839 111.447 63.9386C110.736 64.7014 110.025 65.5024 109.303 66.3124L108.763 66.9199L108.216 67.5521C107.863 67.9661 107.514 68.3846 107.161 68.8144C105.748 70.5086 104.317 72.2659 102.917 74.0884C102.215 75.0041 101.504 75.9266 100.807 76.8694C100.116 77.8054 99.4273 78.7706 98.7433 79.7426C97.3731 81.6821 96.0028 83.6756 94.6798 85.7096C93.3568 87.7414 92.0428 89.8406 90.7896 91.9601C88.2471 96.2531 85.8036 100.638 83.5513 105.042C79.1233 113.713 75.2106 122.796 72.1033 131.902C70.6701 136.089 69.3516 140.407 68.2176 144.727C67.5111 147.423 66.8833 150.042 66.3321 152.548C63.0696 144.21 59.8431 134.37 61.6948 125.593C63.9966 129.047 65.8753 133.446 66.4986 137.399C64.9866 83.0681 102.71 47.4101 154.897 33.4106C145.012 41.5174 139.426 53.7596 132.07 63.8734C130.835 65.5676 128.896 66.7399 126.659 67.1786C123.028 67.8896 119.326 69.1114 116.226 70.5941C119.961 69.6086 124.015 68.9741 127.996 68.9404L128.014 68.9314Z" fill="black"/>
</g>
</svg>
