<svg width="280" height="714" viewBox="0 0 280 714" fill="none" xmlns="http://www.w3.org/2000/svg">
<mask id="mask0_57_3" style="mask-type:luminance" maskUnits="userSpaceOnUse" x="-116" y="0" width="396" height="714">
<path d="M280 0H-116V713.203H280V0Z" fill="white"/>
</mask>
<g mask="url(#mask0_57_3)">
<path d="M279.491 579.25C279.972 572.764 277.654 566.329 275.505 560.099C259.42 513.013 252.409 464.855 254.473 415.625C256.621 365.424 268.438 315.836 270.247 265.635C271.491 229.734 267.674 194.266 258.826 159.233C249.978 124.225 236.38 90.7752 218.005 58.9337C206.301 38.7104 191.092 17.5678 167.713 7.17529C156.519 2.19607 143.345 1.20023 130.991 0.71507C118.157 0.229913 105.407 1.04702 92.7707 3.14084C67.1585 7.4051 43.6947 16.3422 22.436 29.9265C9.68644 38.0975 -30.7108 67.3345 -47.9835 223.171C-52.4218 263.133 -77.3838 311.163 -91.4621 349.235C-113.371 408.398 -120.212 472.567 -94.6283 530.504C-69.0443 588.442 -59.6871 599.498 -19.1485 649.98C-5.01374 667.573 9.20585 685.167 25.263 701.355C30.8886 706.999 37.956 712.923 46.2955 712.233C56.7835 711.365 62.6919 700.385 62.6353 690.886C62.5788 681.362 58.7341 672.067 59.1299 662.543C59.2712 659.198 60.0628 655.649 62.6071 653.197C68.996 646.993 80.4169 651.64 89.6045 650.031C100.347 648.142 106.651 637.749 108.46 627.995C110.27 618.241 109.139 608.052 112.277 598.579C113.266 595.566 114.764 592.553 117.507 590.638C123.613 586.374 132.433 589.259 140.094 588.34C155.812 586.45 163.671 569.189 178.456 563.929C193.099 558.745 209.072 566.763 222.302 574.475L248.084 589.489C253.653 592.757 259.985 596.153 266.487 595.004C273.866 593.728 278.7 586.782 279.435 580.016C279.463 579.76 279.491 579.505 279.491 579.25Z" fill="white"/>
</g>
<path d="M158 129.268C158 131.952 158.139 134.636 158.361 137.269C158.611 139.902 158.972 142.483 159.444 144.963C159.944 147.442 160.528 149.819 161.222 152.043C161.917 154.293 162.694 156.363 163.583 158.255C164.444 160.172 165.417 161.859 166.444 163.367C167.5 164.849 168.583 166.127 169.75 167.15C170.889 168.172 172.083 168.965 173.306 169.476C174.528 170.013 175.75 170.268 177 170.268C178.25 170.268 179.5 170.013 180.722 169.476C181.944 168.965 183.139 168.172 184.278 167.15C185.444 166.127 186.528 164.849 187.556 163.367C188.611 161.859 189.556 160.172 190.444 158.255C191.333 156.363 192.111 154.293 192.806 152.043C193.5 149.819 194.083 147.442 194.556 144.963C195.056 142.483 195.417 139.902 195.639 137.269C195.889 134.636 196 131.952 196 129.268C196 126.584 195.889 123.926 195.639 121.268C195.417 118.635 195.056 116.079 194.556 113.574C194.083 111.094 193.5 108.743 192.806 106.493C192.111 104.27 191.333 102.199 190.444 100.282C189.556 98.3905 188.611 96.6779 187.556 95.1954C186.528 93.6873 185.444 92.4348 184.278 91.3868C183.139 90.3643 181.944 89.5975 180.722 89.0607C179.5 88.5495 178.25 88.2683 177 88.2683C175.75 88.2683 174.528 88.5495 173.306 89.0607C172.083 89.5975 170.889 90.3643 169.75 91.3868C168.583 92.4348 167.5 93.6873 166.444 95.1954C165.417 96.6779 164.444 98.3905 163.583 100.282C162.694 102.199 161.917 104.27 161.222 106.493C160.528 108.743 159.944 111.094 159.444 113.574C158.972 116.079 158.611 118.635 158.361 121.268C158.139 123.926 158 126.584 158 129.268Z" fill="black"/>
<path d="M89 128.268C89 130.952 89.114 133.611 89.3706 136.269C89.6272 138.902 89.9978 141.458 90.4825 143.963C90.9671 146.442 91.5658 148.794 92.2785 151.043C92.9912 153.267 93.7895 155.338 94.7018 157.255C95.614 159.146 96.6118 160.859 97.6667 162.341C98.7215 163.849 99.8618 165.102 101.031 166.15C102.228 167.172 103.425 167.939 104.68 168.476C105.934 168.987 107.217 169.268 108.5 169.268C109.783 169.268 111.037 168.987 112.292 168.476C113.546 167.939 114.772 167.172 115.969 166.15C117.138 165.102 118.279 163.849 119.333 162.341C120.388 160.859 121.386 159.146 122.298 157.255C123.182 155.338 124.009 153.267 124.721 151.043C125.434 148.794 126.033 146.442 126.518 143.963C127.002 141.458 127.373 138.902 127.629 136.269C127.886 133.611 128 130.952 128 128.268C128 125.584 127.886 122.9 127.629 120.268C127.373 117.635 127.002 115.053 126.518 112.574C126.033 110.094 125.434 107.717 124.721 105.493C124.009 103.244 123.182 101.174 122.298 99.282C121.386 97.3649 120.388 95.6779 119.333 94.1698C118.279 92.6873 117.138 91.4092 115.969 90.3868C114.772 89.3643 113.546 88.5719 112.292 88.0607C111.037 87.5239 109.783 87.2683 108.5 87.2683C107.217 87.2683 105.934 87.5239 104.68 88.0607C103.425 88.5719 102.228 89.3643 101.031 90.3868C99.8618 91.4092 98.7215 92.6873 97.6667 94.1698C96.6118 95.6779 95.614 97.3649 94.7018 99.282C93.7895 101.174 92.9912 103.244 92.2785 105.493C91.5658 107.717 90.9671 110.094 90.4825 112.574C89.9978 115.053 89.6272 117.635 89.3706 120.268C89.114 122.9 89 125.584 89 128.268Z" fill="black"/>
</svg>
