<svg xmlns="http://www.w3.org/2000/svg" xmlns:xlink="http://www.w3.org/1999/xlink" width="275" zoomAndPan="magnify" viewBox="0 0 206.25 260.249984" height="347" preserveAspectRatio="xMidYMid meet" version="1.0"><defs><clipPath id="9e08a5c082"><path d="M 75 75.5 L 129 75.5 L 129 184.605469 L 75 184.605469 Z M 75 75.5 " clip-rule="nonzero"/></clipPath><clipPath id="38f28ea30b"><path d="M 107.945312 106.886719 L 130.363281 106.886719 L 130.363281 142 L 107.945312 142 Z M 107.945312 106.886719 " clip-rule="nonzero"/></clipPath></defs><g clip-path="url(#9e08a5c082)"><path fill="#ffffff" d="M 75.007812 164.113281 C 74.945312 163.121094 75.265625 162.136719 75.558594 161.183594 C 77.78125 153.980469 78.753906 146.613281 78.46875 139.082031 C 78.171875 131.402344 76.539062 123.816406 76.289062 116.136719 C 76.117188 110.644531 76.644531 105.21875 77.867188 99.859375 C 79.089844 94.503906 80.96875 89.386719 83.507812 84.515625 C 85.125 81.417969 87.222656 78.1875 90.453125 76.597656 C 92 75.835938 93.824219 75.683594 95.53125 75.609375 C 97.304688 75.535156 99.066406 75.65625 100.8125 75.980469 C 104.351562 76.632812 107.589844 78 110.53125 80.078125 C 112.289062 81.328125 117.871094 85.800781 120.261719 109.640625 C 120.875 115.753906 124.324219 123.101562 126.269531 128.925781 C 129.292969 137.976562 130.238281 147.792969 126.707031 156.65625 C 123.171875 165.519531 121.875 167.210938 116.273438 174.933594 C 114.324219 177.625 112.355469 180.316406 110.136719 182.792969 C 109.363281 183.65625 108.386719 184.5625 107.230469 184.457031 C 105.785156 184.324219 104.96875 182.644531 104.976562 181.1875 C 104.984375 179.734375 105.515625 178.3125 105.457031 176.855469 C 105.4375 176.34375 105.332031 175.800781 104.980469 175.425781 C 104.097656 174.476562 102.519531 175.183594 101.246094 174.941406 C 99.765625 174.652344 98.894531 173.0625 98.644531 171.570312 C 98.394531 170.078125 98.550781 168.519531 98.117188 167.070312 C 97.980469 166.609375 97.769531 166.148438 97.390625 165.855469 C 96.546875 165.203125 95.332031 165.644531 94.273438 165.503906 C 92.097656 165.214844 91.015625 162.574219 88.972656 161.769531 C 86.945312 160.976562 84.742188 162.203125 82.914062 163.382812 L 79.351562 165.679688 C 78.582031 166.179688 77.707031 166.699219 76.804688 166.523438 C 75.785156 166.328125 75.121094 165.265625 75.019531 164.230469 C 75.015625 164.191406 75.011719 164.152344 75.007812 164.113281 Z M 75.007812 164.113281 " fill-opacity="1" fill-rule="nonzero"/></g><path fill="#000000" d="M 91.847656 95.21875 C 91.847656 95.628906 91.832031 96.039062 91.796875 96.441406 C 91.761719 96.84375 91.710938 97.238281 91.644531 97.617188 C 91.578125 97.996094 91.496094 98.359375 91.398438 98.699219 C 91.300781 99.042969 91.191406 99.359375 91.066406 99.648438 C 90.941406 99.941406 90.808594 100.199219 90.660156 100.429688 C 90.515625 100.65625 90.363281 100.847656 90.199219 101.007812 C 90.039062 101.164062 89.871094 101.28125 89.699219 101.363281 C 89.527344 101.445312 89.351562 101.484375 89.175781 101.484375 C 89 101.484375 88.828125 101.445312 88.65625 101.363281 C 88.484375 101.28125 88.316406 101.164062 88.152344 101.007812 C 87.992188 100.847656 87.839844 100.65625 87.691406 100.429688 C 87.546875 100.199219 87.410156 99.941406 87.289062 99.648438 C 87.164062 99.359375 87.050781 99.042969 86.957031 98.699219 C 86.859375 98.359375 86.773438 97.996094 86.707031 97.617188 C 86.640625 97.238281 86.589844 96.84375 86.554688 96.441406 C 86.523438 96.039062 86.503906 95.628906 86.503906 95.21875 C 86.503906 94.808594 86.523438 94.398438 86.554688 93.996094 C 86.589844 93.59375 86.640625 93.203125 86.707031 92.820312 C 86.773438 92.441406 86.859375 92.082031 86.957031 91.738281 C 87.050781 91.394531 87.164062 91.078125 87.289062 90.789062 C 87.410156 90.5 87.546875 90.238281 87.691406 90.011719 C 87.839844 89.78125 87.992188 89.589844 88.152344 89.429688 C 88.316406 89.273438 88.484375 89.15625 88.65625 89.074219 C 88.828125 88.996094 89 88.953125 89.175781 88.953125 C 89.351562 88.953125 89.527344 88.996094 89.699219 89.074219 C 89.871094 89.15625 90.039062 89.273438 90.199219 89.429688 C 90.363281 89.589844 90.515625 89.78125 90.660156 90.011719 C 90.808594 90.238281 90.941406 90.5 91.066406 90.789062 C 91.191406 91.078125 91.300781 91.394531 91.398438 91.738281 C 91.496094 92.082031 91.578125 92.441406 91.644531 92.820312 C 91.710938 93.203125 91.761719 93.59375 91.796875 93.996094 C 91.832031 94.398438 91.847656 94.808594 91.847656 95.21875 Z M 91.847656 95.21875 " fill-opacity="1" fill-rule="nonzero"/><path fill="#000000" d="M 101.359375 95.074219 C 101.359375 95.484375 101.339844 95.890625 101.308594 96.296875 C 101.273438 96.699219 101.222656 97.089844 101.15625 97.472656 C 101.089844 97.851562 101.003906 98.210938 100.910156 98.554688 C 100.8125 98.894531 100.699219 99.210938 100.574219 99.503906 C 100.453125 99.792969 100.316406 100.054688 100.171875 100.28125 C 100.023438 100.511719 99.871094 100.703125 99.710938 100.863281 C 99.546875 101.019531 99.378906 101.136719 99.207031 101.21875 C 99.035156 101.296875 98.863281 101.339844 98.6875 101.339844 C 98.511719 101.339844 98.335938 101.296875 98.164062 101.21875 C 97.992188 101.136719 97.824219 101.019531 97.664062 100.863281 C 97.503906 100.703125 97.347656 100.511719 97.203125 100.28125 C 97.054688 100.054688 96.921875 99.792969 96.796875 99.503906 C 96.671875 99.210938 96.5625 98.894531 96.464844 98.554688 C 96.367188 98.210938 96.285156 97.851562 96.21875 97.472656 C 96.152344 97.089844 96.101562 96.699219 96.066406 96.296875 C 96.03125 95.890625 96.015625 95.484375 96.015625 95.074219 C 96.015625 94.660156 96.03125 94.253906 96.066406 93.851562 C 96.101562 93.449219 96.152344 93.054688 96.21875 92.675781 C 96.285156 92.296875 96.367188 91.933594 96.464844 91.59375 C 96.5625 91.25 96.671875 90.933594 96.796875 90.644531 C 96.921875 90.351562 97.054688 90.09375 97.203125 89.863281 C 97.347656 89.636719 97.503906 89.441406 97.664062 89.285156 C 97.824219 89.128906 97.992188 89.007812 98.164062 88.929688 C 98.335938 88.847656 98.511719 88.808594 98.6875 88.808594 C 98.863281 88.808594 99.035156 88.847656 99.207031 88.929688 C 99.378906 89.007812 99.546875 89.128906 99.710938 89.285156 C 99.871094 89.441406 100.023438 89.636719 100.171875 89.863281 C 100.316406 90.09375 100.453125 90.351562 100.574219 90.644531 C 100.699219 90.933594 100.8125 91.25 100.910156 91.59375 C 101.003906 91.933594 101.089844 92.296875 101.15625 92.675781 C 101.222656 93.054688 101.273438 93.449219 101.308594 93.851562 C 101.339844 94.253906 101.359375 94.660156 101.359375 95.074219 Z M 101.359375 95.074219 " fill-opacity="1" fill-rule="nonzero"/><g clip-path="url(#38f28ea30b)"><path fill="#000000" d="M 123.929688 115.246094 C 118.566406 121.386719 113.40625 134.144531 110.085938 135.980469 C 110.066406 136.078125 110.046875 136.171875 110.027344 136.269531 C 109.867188 137.132812 109.75 137.933594 109.652344 138.640625 C 109.558594 139.347656 109.46875 139.964844 109.390625 140.464844 C 109.320312 140.964844 109.230469 141.347656 109.160156 141.597656 C 109.089844 141.851562 109.035156 141.980469 109.035156 141.980469 C 109.027344 142 109 142.003906 108.976562 141.984375 C 108.960938 141.972656 108.949219 141.957031 108.945312 141.941406 C 108.945312 141.941406 108.90625 141.773438 108.875 141.472656 C 108.847656 141.175781 108.820312 140.746094 108.847656 140.222656 C 108.875 139.703125 108.921875 139.070312 109.023438 138.363281 C 109.125 137.660156 109.265625 136.863281 109.4375 136.003906 C 110.265625 131.824219 111.710938 127.710938 113.660156 123.886719 C 114.699219 121.847656 115.921875 119.824219 117.257812 117.929688 C 117.875 117.054688 118.546875 116.183594 119.230469 115.34375 C 119.558594 114.941406 119.894531 114.550781 120.226562 114.1875 C 120.558594 113.820312 120.898438 113.46875 121.226562 113.140625 C 121.390625 112.976562 121.554688 112.816406 121.722656 112.664062 C 121.882812 112.507812 122.042969 112.359375 122.207031 112.214844 C 122.527344 111.929688 122.84375 111.65625 123.144531 111.410156 C 123.75 110.917969 124.304688 110.5 124.777344 110.171875 C 125.722656 109.515625 126.324219 109.175781 126.324219 109.175781 C 126.324219 109.175781 126.167969 109.253906 125.886719 109.414062 C 125.605469 109.574219 125.195312 109.8125 124.707031 110.128906 C 124.214844 110.449219 123.628906 110.851562 123.003906 111.335938 C 122.6875 111.574219 122.363281 111.84375 122.027344 112.121094 C 121.859375 112.261719 121.691406 112.414062 121.519531 112.566406 C 121.351562 112.714844 121.179688 112.875 121.007812 113.035156 C 120.664062 113.355469 120.3125 113.707031 119.96875 114.074219 C 119.796875 114.253906 119.628906 114.441406 119.457031 114.632812 L 119.328125 114.773438 L 119.195312 114.921875 C 119.109375 115.019531 119.027344 115.117188 118.945312 115.21875 C 118.605469 115.617188 118.261719 116.03125 117.929688 116.460938 C 117.761719 116.675781 117.589844 116.890625 117.425781 117.113281 C 117.257812 117.332031 117.09375 117.558594 116.929688 117.789062 C 116.601562 118.242188 116.273438 118.710938 115.957031 119.191406 C 115.640625 119.667969 115.328125 120.160156 115.027344 120.660156 C 114.421875 121.667969 113.835938 122.699219 113.296875 123.734375 C 112.238281 125.769531 111.300781 127.90625 110.558594 130.046875 C 110.21875 131.03125 109.902344 132.042969 109.628906 133.058594 C 109.460938 133.691406 109.3125 134.308594 109.179688 134.898438 C 108.398438 132.9375 107.628906 130.625 108.070312 128.5625 C 108.621094 129.375 109.070312 130.410156 109.21875 131.335938 C 108.859375 118.570312 117.878906 110.1875 130.359375 106.898438 C 127.996094 108.804688 126.660156 111.679688 124.898438 114.058594 C 124.605469 114.457031 124.140625 114.730469 123.605469 114.835938 C 122.738281 115.003906 121.851562 115.289062 121.113281 115.636719 C 122.003906 115.40625 122.972656 115.257812 123.925781 115.25 Z M 123.929688 115.246094 " fill-opacity="1" fill-rule="evenodd"/></g></svg>