<svg xmlns="http://www.w3.org/2000/svg" xmlns:xlink="http://www.w3.org/1999/xlink" width="500" zoomAndPan="magnify" viewBox="0 0 375 374.999991" height="500" preserveAspectRatio="xMidYMid meet" version="1.0"><defs><g/><clipPath id="b62086040c"><path d="M 162.214844 104.175781 L 217 104.175781 L 217 213.675781 L 162.214844 213.675781 Z M 162.214844 104.175781 " clip-rule="nonzero"/></clipPath><clipPath id="1bdc63ebb1"><path d="M 195.335938 135.675781 L 217.835938 135.675781 L 217.835938 170.925781 L 195.335938 170.925781 Z M 195.335938 135.675781 " clip-rule="nonzero"/></clipPath></defs><path stroke-linecap="butt" transform="matrix(0.747699, 0, 0, 0.75, 95.893952, 168.967239)" fill="none" stroke-linejoin="miter" d="M 0.000774974 0.502014 L 66.214354 0.502014 " stroke="#000000" stroke-width="1" stroke-opacity="1" stroke-miterlimit="4"/><path stroke-linecap="butt" transform="matrix(0.747699, 0, 0, 0.75, 95.893952, 188.529772)" fill="none" stroke-linejoin="miter" d="M 0.000774974 0.50197 L 66.214354 0.50197 " stroke="#000000" stroke-width="1" stroke-opacity="1" stroke-miterlimit="4"/><path stroke-linecap="butt" transform="matrix(0.747699, 0, 0, 0.75, 229.445865, 167.626849)" fill="none" stroke-linejoin="miter" d="M -0.000738443 0.497535 L 66.212841 0.497535 " stroke="#000000" stroke-width="1" stroke-opacity="1" stroke-miterlimit="4"/><path stroke-linecap="butt" transform="matrix(0.747699, 0, 0, 0.75, 229.445865, 187.189382)" fill="none" stroke-linejoin="miter" d="M -0.000738443 0.497491 L 66.212841 0.497491 " stroke="#000000" stroke-width="1" stroke-opacity="1" stroke-miterlimit="4"/><g fill="#000000" fill-opacity="1"><g transform="translate(126.437351, 260.973037)"><g><path d="M 3.671875 -1.15625 L 1.390625 -1.15625 L 0.96875 0 L 0.25 0 L 2.140625 -5.203125 L 2.921875 -5.203125 L 4.8125 0 L 4.09375 0 Z M 3.46875 -1.71875 L 2.53125 -4.359375 L 1.578125 -1.71875 Z M 3.46875 -1.71875 "/></g></g></g><g fill="#000000" fill-opacity="1"><g transform="translate(133.206474, 260.973037)"><g><path d="M 4.6875 0 L 4 0 L 1.265625 -4.15625 L 1.265625 0 L 0.578125 0 L 0.578125 -5.234375 L 1.265625 -5.234375 L 4 -1.078125 L 4 -5.234375 L 4.6875 -5.234375 Z M 4.6875 0 "/></g></g></g><g fill="#000000" fill-opacity="1"><g transform="translate(140.192991, 260.973037)"><g><path d="M 2.953125 0.046875 C 2.460938 0.046875 2.015625 -0.0625 1.609375 -0.28125 C 1.210938 -0.507812 0.898438 -0.828125 0.671875 -1.234375 C 0.441406 -1.648438 0.328125 -2.113281 0.328125 -2.625 C 0.328125 -3.125 0.441406 -3.578125 0.671875 -3.984375 C 0.898438 -4.398438 1.210938 -4.71875 1.609375 -4.9375 C 2.015625 -5.164062 2.460938 -5.28125 2.953125 -5.28125 C 3.441406 -5.28125 3.882812 -5.164062 4.28125 -4.9375 C 4.675781 -4.71875 4.988281 -4.40625 5.21875 -4 C 5.457031 -3.59375 5.578125 -3.132812 5.578125 -2.625 C 5.578125 -2.101562 5.457031 -1.640625 5.21875 -1.234375 C 4.988281 -0.828125 4.675781 -0.507812 4.28125 -0.28125 C 3.882812 -0.0625 3.441406 0.046875 2.953125 0.046875 Z M 2.953125 -0.546875 C 3.316406 -0.546875 3.644531 -0.628906 3.9375 -0.796875 C 4.226562 -0.960938 4.457031 -1.203125 4.625 -1.515625 C 4.789062 -1.835938 4.875 -2.207031 4.875 -2.625 C 4.875 -3.039062 4.789062 -3.40625 4.625 -3.71875 C 4.457031 -4.03125 4.226562 -4.269531 3.9375 -4.4375 C 3.644531 -4.601562 3.316406 -4.6875 2.953125 -4.6875 C 2.578125 -4.6875 2.242188 -4.601562 1.953125 -4.4375 C 1.660156 -4.269531 1.429688 -4.03125 1.265625 -3.71875 C 1.097656 -3.40625 1.015625 -3.039062 1.015625 -2.625 C 1.015625 -2.207031 1.097656 -1.835938 1.265625 -1.515625 C 1.429688 -1.203125 1.660156 -0.960938 1.953125 -0.796875 C 2.253906 -0.628906 2.585938 -0.546875 2.953125 -0.546875 Z M 2.953125 -0.546875 "/></g></g></g><g fill="#000000" fill-opacity="1"><g transform="translate(147.801695, 260.973037)"><g><path d="M 4.6875 0 L 4 0 L 1.265625 -4.15625 L 1.265625 0 L 0.578125 0 L 0.578125 -5.234375 L 1.265625 -5.234375 L 4 -1.078125 L 4 -5.234375 L 4.6875 -5.234375 Z M 4.6875 0 "/></g></g></g><g fill="#000000" fill-opacity="1"><g transform="translate(154.788213, 260.973037)"><g><path d="M 4.234375 -5.234375 L 2.53125 -1.96875 L 2.53125 0 L 1.859375 0 L 1.859375 -1.96875 L 0.140625 -5.234375 L 0.90625 -5.234375 L 2.1875 -2.578125 L 3.484375 -5.234375 Z M 4.234375 -5.234375 "/></g></g></g><g fill="#000000" fill-opacity="1"><g transform="translate(160.882675, 260.973037)"><g><path d="M 5.875 -5.1875 L 5.875 0 L 5.203125 0 L 5.203125 -3.875 L 3.46875 0 L 3 0 L 1.265625 -3.875 L 1.265625 0 L 0.578125 0 L 0.578125 -5.1875 L 1.3125 -5.1875 L 3.234375 -0.90625 L 5.15625 -5.1875 Z M 5.875 -5.1875 "/></g></g></g><g fill="#000000" fill-opacity="1"><g transform="translate(169.0536, 260.973037)"><g><path d="M 2.953125 0.046875 C 2.460938 0.046875 2.015625 -0.0625 1.609375 -0.28125 C 1.210938 -0.507812 0.898438 -0.828125 0.671875 -1.234375 C 0.441406 -1.648438 0.328125 -2.113281 0.328125 -2.625 C 0.328125 -3.125 0.441406 -3.578125 0.671875 -3.984375 C 0.898438 -4.398438 1.210938 -4.71875 1.609375 -4.9375 C 2.015625 -5.164062 2.460938 -5.28125 2.953125 -5.28125 C 3.441406 -5.28125 3.882812 -5.164062 4.28125 -4.9375 C 4.675781 -4.71875 4.988281 -4.40625 5.21875 -4 C 5.457031 -3.59375 5.578125 -3.132812 5.578125 -2.625 C 5.578125 -2.101562 5.457031 -1.640625 5.21875 -1.234375 C 4.988281 -0.828125 4.675781 -0.507812 4.28125 -0.28125 C 3.882812 -0.0625 3.441406 0.046875 2.953125 0.046875 Z M 2.953125 -0.546875 C 3.316406 -0.546875 3.644531 -0.628906 3.9375 -0.796875 C 4.226562 -0.960938 4.457031 -1.203125 4.625 -1.515625 C 4.789062 -1.835938 4.875 -2.207031 4.875 -2.625 C 4.875 -3.039062 4.789062 -3.40625 4.625 -3.71875 C 4.457031 -4.03125 4.226562 -4.269531 3.9375 -4.4375 C 3.644531 -4.601562 3.316406 -4.6875 2.953125 -4.6875 C 2.578125 -4.6875 2.242188 -4.601562 1.953125 -4.4375 C 1.660156 -4.269531 1.429688 -4.03125 1.265625 -3.71875 C 1.097656 -3.40625 1.015625 -3.039062 1.015625 -2.625 C 1.015625 -2.207031 1.097656 -1.835938 1.265625 -1.515625 C 1.429688 -1.203125 1.660156 -0.960938 1.953125 -0.796875 C 2.253906 -0.628906 2.585938 -0.546875 2.953125 -0.546875 Z M 2.953125 -0.546875 "/></g></g></g><g fill="#000000" fill-opacity="1"><g transform="translate(176.662306, 260.973037)"><g><path d="M 1.25 -5.234375 L 1.25 -1.921875 C 1.25 -1.453125 1.359375 -1.101562 1.578125 -0.875 C 1.804688 -0.65625 2.125 -0.546875 2.53125 -0.546875 C 2.9375 -0.546875 3.25 -0.65625 3.46875 -0.875 C 3.695312 -1.101562 3.8125 -1.453125 3.8125 -1.921875 L 3.8125 -5.234375 L 4.5 -5.234375 L 4.5 -1.921875 C 4.5 -1.492188 4.410156 -1.128906 4.234375 -0.828125 C 4.054688 -0.523438 3.816406 -0.300781 3.515625 -0.15625 C 3.222656 -0.0195312 2.894531 0.046875 2.53125 0.046875 C 2.15625 0.046875 1.816406 -0.0195312 1.515625 -0.15625 C 1.222656 -0.300781 0.988281 -0.523438 0.8125 -0.828125 C 0.644531 -1.128906 0.5625 -1.492188 0.5625 -1.921875 L 0.5625 -5.234375 Z M 1.25 -5.234375 "/></g></g></g><g fill="#000000" fill-opacity="1"><g transform="translate(183.438921, 260.973037)"><g><path d="M 2.234375 0.046875 C 1.890625 0.046875 1.582031 -0.0078125 1.3125 -0.125 C 1.039062 -0.25 0.828125 -0.421875 0.671875 -0.640625 C 0.515625 -0.859375 0.429688 -1.109375 0.421875 -1.390625 L 1.15625 -1.390625 C 1.175781 -1.148438 1.273438 -0.945312 1.453125 -0.78125 C 1.628906 -0.613281 1.890625 -0.53125 2.234375 -0.53125 C 2.554688 -0.53125 2.8125 -0.609375 3 -0.765625 C 3.1875 -0.929688 3.28125 -1.140625 3.28125 -1.390625 C 3.28125 -1.585938 3.222656 -1.75 3.109375 -1.875 C 3.003906 -2 2.867188 -2.09375 2.703125 -2.15625 C 2.535156 -2.226562 2.316406 -2.300781 2.046875 -2.375 C 1.691406 -2.46875 1.410156 -2.554688 1.203125 -2.640625 C 1.003906 -2.734375 0.828125 -2.875 0.671875 -3.0625 C 0.523438 -3.257812 0.453125 -3.519531 0.453125 -3.84375 C 0.453125 -4.132812 0.523438 -4.390625 0.671875 -4.609375 C 0.816406 -4.828125 1.019531 -4.992188 1.28125 -5.109375 C 1.550781 -5.234375 1.851562 -5.296875 2.1875 -5.296875 C 2.675781 -5.296875 3.078125 -5.171875 3.390625 -4.921875 C 3.703125 -4.679688 3.878906 -4.359375 3.921875 -3.953125 L 3.171875 -3.953125 C 3.148438 -4.148438 3.046875 -4.320312 2.859375 -4.46875 C 2.671875 -4.625 2.425781 -4.703125 2.125 -4.703125 C 1.832031 -4.703125 1.597656 -4.628906 1.421875 -4.484375 C 1.242188 -4.335938 1.15625 -4.132812 1.15625 -3.875 C 1.15625 -3.675781 1.207031 -3.515625 1.3125 -3.390625 C 1.425781 -3.273438 1.5625 -3.1875 1.71875 -3.125 C 1.875 -3.0625 2.09375 -2.992188 2.375 -2.921875 C 2.71875 -2.828125 2.992188 -2.734375 3.203125 -2.640625 C 3.421875 -2.546875 3.601562 -2.398438 3.75 -2.203125 C 3.894531 -2.015625 3.96875 -1.753906 3.96875 -1.421875 C 3.96875 -1.171875 3.898438 -0.929688 3.765625 -0.703125 C 3.628906 -0.484375 3.429688 -0.300781 3.171875 -0.15625 C 2.910156 -0.0195312 2.597656 0.046875 2.234375 0.046875 Z M 2.234375 0.046875 "/></g></g></g><g fill="#000000" fill-opacity="1"><g transform="translate(189.555869, 260.973037)"><g/></g></g><g fill="#000000" fill-opacity="1"><g transform="translate(193.27401, 260.973037)"><g><path d="M 3.1875 -2.6875 C 3.382812 -2.65625 3.5625 -2.578125 3.71875 -2.453125 C 3.875 -2.328125 4 -2.171875 4.09375 -1.984375 C 4.1875 -1.804688 4.234375 -1.613281 4.234375 -1.40625 C 4.234375 -1.132812 4.164062 -0.894531 4.03125 -0.6875 C 3.894531 -0.476562 3.695312 -0.3125 3.4375 -0.1875 C 3.175781 -0.0625 2.875 0 2.53125 0 L 0.578125 0 L 0.578125 -5.234375 L 2.453125 -5.234375 C 2.804688 -5.234375 3.109375 -5.171875 3.359375 -5.046875 C 3.609375 -4.929688 3.796875 -4.773438 3.921875 -4.578125 C 4.046875 -4.378906 4.109375 -4.15625 4.109375 -3.90625 C 4.109375 -3.59375 4.023438 -3.332031 3.859375 -3.125 C 3.691406 -2.925781 3.46875 -2.78125 3.1875 -2.6875 Z M 1.265625 -2.96875 L 2.40625 -2.96875 C 2.726562 -2.96875 2.972656 -3.039062 3.140625 -3.1875 C 3.316406 -3.34375 3.40625 -3.550781 3.40625 -3.8125 C 3.40625 -4.082031 3.316406 -4.289062 3.140625 -4.4375 C 2.972656 -4.59375 2.722656 -4.671875 2.390625 -4.671875 L 1.265625 -4.671875 Z M 2.46875 -0.5625 C 2.8125 -0.5625 3.078125 -0.640625 3.265625 -0.796875 C 3.453125 -0.960938 3.546875 -1.1875 3.546875 -1.46875 C 3.546875 -1.757812 3.445312 -1.988281 3.25 -2.15625 C 3.050781 -2.320312 2.78125 -2.40625 2.4375 -2.40625 L 1.265625 -2.40625 L 1.265625 -0.5625 Z M 2.46875 -0.5625 "/></g></g></g><g fill="#000000" fill-opacity="1"><g transform="translate(199.585857, 260.973037)"><g><path d="M 2.953125 0.046875 C 2.460938 0.046875 2.015625 -0.0625 1.609375 -0.28125 C 1.210938 -0.507812 0.898438 -0.828125 0.671875 -1.234375 C 0.441406 -1.648438 0.328125 -2.113281 0.328125 -2.625 C 0.328125 -3.125 0.441406 -3.578125 0.671875 -3.984375 C 0.898438 -4.398438 1.210938 -4.71875 1.609375 -4.9375 C 2.015625 -5.164062 2.460938 -5.28125 2.953125 -5.28125 C 3.441406 -5.28125 3.882812 -5.164062 4.28125 -4.9375 C 4.675781 -4.71875 4.988281 -4.40625 5.21875 -4 C 5.457031 -3.59375 5.578125 -3.132812 5.578125 -2.625 C 5.578125 -2.101562 5.457031 -1.640625 5.21875 -1.234375 C 4.988281 -0.828125 4.675781 -0.507812 4.28125 -0.28125 C 3.882812 -0.0625 3.441406 0.046875 2.953125 0.046875 Z M 2.953125 -0.546875 C 3.316406 -0.546875 3.644531 -0.628906 3.9375 -0.796875 C 4.226562 -0.960938 4.457031 -1.203125 4.625 -1.515625 C 4.789062 -1.835938 4.875 -2.207031 4.875 -2.625 C 4.875 -3.039062 4.789062 -3.40625 4.625 -3.71875 C 4.457031 -4.03125 4.226562 -4.269531 3.9375 -4.4375 C 3.644531 -4.601562 3.316406 -4.6875 2.953125 -4.6875 C 2.578125 -4.6875 2.242188 -4.601562 1.953125 -4.4375 C 1.660156 -4.269531 1.429688 -4.03125 1.265625 -3.71875 C 1.097656 -3.40625 1.015625 -3.039062 1.015625 -2.625 C 1.015625 -2.207031 1.097656 -1.835938 1.265625 -1.515625 C 1.429688 -1.203125 1.660156 -0.960938 1.953125 -0.796875 C 2.253906 -0.628906 2.585938 -0.546875 2.953125 -0.546875 Z M 2.953125 -0.546875 "/></g></g></g><g fill="#000000" fill-opacity="1"><g transform="translate(207.194558, 260.973037)"><g><path d="M 2.953125 0.046875 C 2.460938 0.046875 2.015625 -0.0625 1.609375 -0.28125 C 1.210938 -0.507812 0.898438 -0.828125 0.671875 -1.234375 C 0.441406 -1.648438 0.328125 -2.113281 0.328125 -2.625 C 0.328125 -3.125 0.441406 -3.578125 0.671875 -3.984375 C 0.898438 -4.398438 1.210938 -4.71875 1.609375 -4.9375 C 2.015625 -5.164062 2.460938 -5.28125 2.953125 -5.28125 C 3.441406 -5.28125 3.882812 -5.164062 4.28125 -4.9375 C 4.675781 -4.71875 4.988281 -4.40625 5.21875 -4 C 5.457031 -3.59375 5.578125 -3.132812 5.578125 -2.625 C 5.578125 -2.101562 5.457031 -1.640625 5.21875 -1.234375 C 4.988281 -0.828125 4.675781 -0.507812 4.28125 -0.28125 C 3.882812 -0.0625 3.441406 0.046875 2.953125 0.046875 Z M 2.953125 -0.546875 C 3.316406 -0.546875 3.644531 -0.628906 3.9375 -0.796875 C 4.226562 -0.960938 4.457031 -1.203125 4.625 -1.515625 C 4.789062 -1.835938 4.875 -2.207031 4.875 -2.625 C 4.875 -3.039062 4.789062 -3.40625 4.625 -3.71875 C 4.457031 -4.03125 4.226562 -4.269531 3.9375 -4.4375 C 3.644531 -4.601562 3.316406 -4.6875 2.953125 -4.6875 C 2.578125 -4.6875 2.242188 -4.601562 1.953125 -4.4375 C 1.660156 -4.269531 1.429688 -4.03125 1.265625 -3.71875 C 1.097656 -3.40625 1.015625 -3.039062 1.015625 -2.625 C 1.015625 -2.207031 1.097656 -1.835938 1.265625 -1.515625 C 1.429688 -1.203125 1.660156 -0.960938 1.953125 -0.796875 C 2.253906 -0.628906 2.585938 -0.546875 2.953125 -0.546875 Z M 2.953125 -0.546875 "/></g></g></g><g fill="#000000" fill-opacity="1"><g transform="translate(214.803263, 260.973037)"><g><path d="M 3.40625 0 L 1.265625 -2.390625 L 1.265625 0 L 0.578125 0 L 0.578125 -5.234375 L 1.265625 -5.234375 L 1.265625 -2.8125 L 3.421875 -5.234375 L 4.28125 -5.234375 L 1.90625 -2.609375 L 4.3125 0 Z M 3.40625 0 "/></g></g></g><g fill="#000000" fill-opacity="1"><g transform="translate(221.010164, 260.973037)"><g/></g></g><g fill="#000000" fill-opacity="1"><g transform="translate(224.728305, 260.973037)"><g><path d="M 0.328125 -2.625 C 0.328125 -3.125 0.441406 -3.578125 0.671875 -3.984375 C 0.898438 -4.398438 1.210938 -4.722656 1.609375 -4.953125 C 2.003906 -5.179688 2.445312 -5.296875 2.9375 -5.296875 C 3.5 -5.296875 3.992188 -5.15625 4.421875 -4.875 C 4.847656 -4.601562 5.160156 -4.21875 5.359375 -3.71875 L 4.53125 -3.71875 C 4.382812 -4.03125 4.175781 -4.269531 3.90625 -4.4375 C 3.632812 -4.601562 3.3125 -4.6875 2.9375 -4.6875 C 2.570312 -4.6875 2.242188 -4.601562 1.953125 -4.4375 C 1.660156 -4.269531 1.429688 -4.03125 1.265625 -3.71875 C 1.097656 -3.40625 1.015625 -3.039062 1.015625 -2.625 C 1.015625 -2.207031 1.097656 -1.84375 1.265625 -1.53125 C 1.429688 -1.21875 1.660156 -0.972656 1.953125 -0.796875 C 2.242188 -0.628906 2.570312 -0.546875 2.9375 -0.546875 C 3.3125 -0.546875 3.632812 -0.628906 3.90625 -0.796875 C 4.175781 -0.960938 4.382812 -1.203125 4.53125 -1.515625 L 5.359375 -1.515625 C 5.160156 -1.015625 4.847656 -0.628906 4.421875 -0.359375 C 3.992188 -0.0859375 3.5 0.046875 2.9375 0.046875 C 2.445312 0.046875 2.003906 -0.0664062 1.609375 -0.296875 C 1.210938 -0.523438 0.898438 -0.84375 0.671875 -1.25 C 0.441406 -1.65625 0.328125 -2.113281 0.328125 -2.625 Z M 0.328125 -2.625 "/></g></g></g><g fill="#000000" fill-opacity="1"><g transform="translate(232.232064, 260.973037)"><g><path d="M 1.265625 -0.5625 L 3.09375 -0.5625 L 3.09375 0 L 0.578125 0 L 0.578125 -5.234375 L 1.265625 -5.234375 Z M 1.265625 -0.5625 "/></g></g></g><g fill="#000000" fill-opacity="1"><g transform="translate(237.187088, 260.973037)"><g><path d="M 1.25 -5.234375 L 1.25 -1.921875 C 1.25 -1.453125 1.359375 -1.101562 1.578125 -0.875 C 1.804688 -0.65625 2.125 -0.546875 2.53125 -0.546875 C 2.9375 -0.546875 3.25 -0.65625 3.46875 -0.875 C 3.695312 -1.101562 3.8125 -1.453125 3.8125 -1.921875 L 3.8125 -5.234375 L 4.5 -5.234375 L 4.5 -1.921875 C 4.5 -1.492188 4.410156 -1.128906 4.234375 -0.828125 C 4.054688 -0.523438 3.816406 -0.300781 3.515625 -0.15625 C 3.222656 -0.0195312 2.894531 0.046875 2.53125 0.046875 C 2.15625 0.046875 1.816406 -0.0195312 1.515625 -0.15625 C 1.222656 -0.300781 0.988281 -0.523438 0.8125 -0.828125 C 0.644531 -1.128906 0.5625 -1.492188 0.5625 -1.921875 L 0.5625 -5.234375 Z M 1.25 -5.234375 "/></g></g></g><g fill="#000000" fill-opacity="1"><g transform="translate(243.963703, 260.973037)"><g><path d="M 3.1875 -2.6875 C 3.382812 -2.65625 3.5625 -2.578125 3.71875 -2.453125 C 3.875 -2.328125 4 -2.171875 4.09375 -1.984375 C 4.1875 -1.804688 4.234375 -1.613281 4.234375 -1.40625 C 4.234375 -1.132812 4.164062 -0.894531 4.03125 -0.6875 C 3.894531 -0.476562 3.695312 -0.3125 3.4375 -0.1875 C 3.175781 -0.0625 2.875 0 2.53125 0 L 0.578125 0 L 0.578125 -5.234375 L 2.453125 -5.234375 C 2.804688 -5.234375 3.109375 -5.171875 3.359375 -5.046875 C 3.609375 -4.929688 3.796875 -4.773438 3.921875 -4.578125 C 4.046875 -4.378906 4.109375 -4.15625 4.109375 -3.90625 C 4.109375 -3.59375 4.023438 -3.332031 3.859375 -3.125 C 3.691406 -2.925781 3.46875 -2.78125 3.1875 -2.6875 Z M 1.265625 -2.96875 L 2.40625 -2.96875 C 2.726562 -2.96875 2.972656 -3.039062 3.140625 -3.1875 C 3.316406 -3.34375 3.40625 -3.550781 3.40625 -3.8125 C 3.40625 -4.082031 3.316406 -4.289062 3.140625 -4.4375 C 2.972656 -4.59375 2.722656 -4.671875 2.390625 -4.671875 L 1.265625 -4.671875 Z M 2.46875 -0.5625 C 2.8125 -0.5625 3.078125 -0.640625 3.265625 -0.796875 C 3.453125 -0.960938 3.546875 -1.1875 3.546875 -1.46875 C 3.546875 -1.757812 3.445312 -1.988281 3.25 -2.15625 C 3.050781 -2.320312 2.78125 -2.40625 2.4375 -2.40625 L 1.265625 -2.40625 L 1.265625 -0.5625 Z M 2.46875 -0.5625 "/></g></g></g><g fill="#000000" fill-opacity="1"><g transform="translate(108.691368, 182.498513)"><g><path d="M 1.71875 -6.390625 L 1.71875 -4 L 4.328125 -4 L 4.328125 -3.234375 L 1.71875 -3.234375 L 1.71875 -0.765625 L 4.640625 -0.765625 L 4.640625 0 L 0.796875 0 L 0.796875 -7.15625 L 4.640625 -7.15625 L 4.640625 -6.390625 Z M 1.71875 -6.390625 "/></g></g></g><g fill="#000000" fill-opacity="1"><g transform="translate(113.945568, 182.498513)"><g><path d="M 3.046875 0.078125 C 2.578125 0.078125 2.15625 -0.00390625 1.78125 -0.171875 C 1.414062 -0.347656 1.125 -0.582031 0.90625 -0.875 C 0.695312 -1.175781 0.585938 -1.519531 0.578125 -1.90625 L 1.578125 -1.90625 C 1.609375 -1.570312 1.742188 -1.289062 1.984375 -1.0625 C 2.234375 -0.832031 2.585938 -0.71875 3.046875 -0.71875 C 3.492188 -0.71875 3.84375 -0.828125 4.09375 -1.046875 C 4.351562 -1.273438 4.484375 -1.5625 4.484375 -1.90625 C 4.484375 -2.175781 4.40625 -2.394531 4.25 -2.5625 C 4.101562 -2.738281 3.914062 -2.867188 3.6875 -2.953125 C 3.46875 -3.046875 3.164062 -3.144531 2.78125 -3.25 C 2.3125 -3.375 1.9375 -3.492188 1.65625 -3.609375 C 1.375 -3.734375 1.128906 -3.925781 0.921875 -4.1875 C 0.722656 -4.457031 0.625 -4.816406 0.625 -5.265625 C 0.625 -5.648438 0.722656 -5.992188 0.921875 -6.296875 C 1.117188 -6.597656 1.394531 -6.828125 1.75 -6.984375 C 2.113281 -7.148438 2.53125 -7.234375 3 -7.234375 C 3.664062 -7.234375 4.210938 -7.066406 4.640625 -6.734375 C 5.066406 -6.398438 5.304688 -5.957031 5.359375 -5.40625 L 4.328125 -5.40625 C 4.296875 -5.675781 4.15625 -5.914062 3.90625 -6.125 C 3.65625 -6.332031 3.320312 -6.4375 2.90625 -6.4375 C 2.507812 -6.4375 2.1875 -6.332031 1.9375 -6.125 C 1.695312 -5.925781 1.578125 -5.644531 1.578125 -5.28125 C 1.578125 -5.03125 1.648438 -4.820312 1.796875 -4.65625 C 1.941406 -4.488281 2.125 -4.363281 2.34375 -4.28125 C 2.5625 -4.195312 2.863281 -4.097656 3.25 -3.984375 C 3.71875 -3.859375 4.09375 -3.726562 4.375 -3.59375 C 4.664062 -3.46875 4.914062 -3.273438 5.125 -3.015625 C 5.332031 -2.753906 5.4375 -2.398438 5.4375 -1.953125 C 5.4375 -1.597656 5.34375 -1.265625 5.15625 -0.953125 C 4.96875 -0.648438 4.691406 -0.398438 4.328125 -0.203125 C 3.972656 -0.015625 3.546875 0.078125 3.046875 0.078125 Z M 3.046875 0.078125 "/></g></g></g><g fill="#000000" fill-opacity="1"><g transform="translate(119.957686, 182.498513)"><g><path d="M 5.1875 -7.140625 L 5.1875 -6.390625 L 3.234375 -6.390625 L 3.234375 0 L 2.3125 0 L 2.3125 -6.390625 L 0.34375 -6.390625 L 0.34375 -7.140625 Z M 5.1875 -7.140625 "/></g></g></g><g fill="#000000" fill-opacity="1"><g transform="translate(125.498664, 182.498513)"><g><path d="M 3.015625 -7.140625 C 3.796875 -7.140625 4.46875 -6.992188 5.03125 -6.703125 C 5.601562 -6.410156 6.039062 -5.992188 6.34375 -5.453125 C 6.65625 -4.921875 6.8125 -4.289062 6.8125 -3.5625 C 6.8125 -2.820312 6.65625 -2.179688 6.34375 -1.640625 C 6.039062 -1.109375 5.601562 -0.703125 5.03125 -0.421875 C 4.46875 -0.140625 3.796875 0 3.015625 0 L 0.796875 0 L 0.796875 -7.140625 Z M 3.015625 -0.765625 C 3.929688 -0.765625 4.632812 -1.007812 5.125 -1.5 C 5.613281 -1.988281 5.859375 -2.675781 5.859375 -3.5625 C 5.859375 -4.445312 5.613281 -5.140625 5.125 -5.640625 C 4.632812 -6.140625 3.929688 -6.390625 3.015625 -6.390625 L 1.71875 -6.390625 L 1.71875 -0.765625 Z M 3.015625 -0.765625 "/></g></g></g><g fill="#000000" fill-opacity="1"><g transform="translate(242.219843, 181.158123)"><g><path d="M 0.515625 -0.75 C 1.390625 -1.445312 2.070312 -2.019531 2.5625 -2.46875 C 3.050781 -2.914062 3.460938 -3.382812 3.796875 -3.875 C 4.140625 -4.363281 4.3125 -4.84375 4.3125 -5.3125 C 4.3125 -5.75 4.203125 -6.097656 3.984375 -6.359375 C 3.773438 -6.617188 3.429688 -6.75 2.953125 -6.75 C 2.484375 -6.75 2.117188 -6.601562 1.859375 -6.3125 C 1.609375 -6.019531 1.472656 -5.628906 1.453125 -5.140625 L 0.546875 -5.140625 C 0.578125 -5.910156 0.8125 -6.503906 1.25 -6.921875 C 1.6875 -7.335938 2.25 -7.546875 2.9375 -7.546875 C 3.644531 -7.546875 4.203125 -7.347656 4.609375 -6.953125 C 5.023438 -6.566406 5.234375 -6.03125 5.234375 -5.34375 C 5.234375 -4.78125 5.0625 -4.226562 4.71875 -3.6875 C 4.382812 -3.15625 4.003906 -2.6875 3.578125 -2.28125 C 3.148438 -1.875 2.597656 -1.398438 1.921875 -0.859375 L 5.453125 -0.859375 L 5.453125 -0.078125 L 0.515625 -0.078125 Z M 0.515625 -0.75 "/></g></g></g><g fill="#000000" fill-opacity="1"><g transform="translate(248.109053, 181.158123)"><g><path d="M 0.640625 -3.78125 C 0.640625 -4.957031 0.828125 -5.875 1.203125 -6.53125 C 1.585938 -7.195312 2.257812 -7.53125 3.21875 -7.53125 C 4.164062 -7.53125 4.832031 -7.195312 5.21875 -6.53125 C 5.601562 -5.875 5.796875 -4.957031 5.796875 -3.78125 C 5.796875 -2.582031 5.601562 -1.648438 5.21875 -0.984375 C 4.832031 -0.328125 4.164062 0 3.21875 0 C 2.257812 0 1.585938 -0.328125 1.203125 -0.984375 C 0.828125 -1.648438 0.640625 -2.582031 0.640625 -3.78125 Z M 4.875 -3.78125 C 4.875 -4.375 4.832031 -4.878906 4.75 -5.296875 C 4.675781 -5.710938 4.515625 -6.046875 4.265625 -6.296875 C 4.023438 -6.546875 3.675781 -6.671875 3.21875 -6.671875 C 2.75 -6.671875 2.394531 -6.546875 2.15625 -6.296875 C 1.914062 -6.046875 1.753906 -5.710938 1.671875 -5.296875 C 1.597656 -4.878906 1.5625 -4.375 1.5625 -3.78125 C 1.5625 -3.164062 1.597656 -2.648438 1.671875 -2.234375 C 1.753906 -1.816406 1.914062 -1.476562 2.15625 -1.21875 C 2.394531 -0.96875 2.75 -0.84375 3.21875 -0.84375 C 3.675781 -0.84375 4.023438 -0.96875 4.265625 -1.21875 C 4.515625 -1.476562 4.675781 -1.816406 4.75 -2.234375 C 4.832031 -2.648438 4.875 -3.164062 4.875 -3.78125 Z M 4.875 -3.78125 "/></g></g></g><g fill="#000000" fill-opacity="1"><g transform="translate(254.54109, 181.158123)"><g><path d="M 0.515625 -0.75 C 1.390625 -1.445312 2.070312 -2.019531 2.5625 -2.46875 C 3.050781 -2.914062 3.460938 -3.382812 3.796875 -3.875 C 4.140625 -4.363281 4.3125 -4.84375 4.3125 -5.3125 C 4.3125 -5.75 4.203125 -6.097656 3.984375 -6.359375 C 3.773438 -6.617188 3.429688 -6.75 2.953125 -6.75 C 2.484375 -6.75 2.117188 -6.601562 1.859375 -6.3125 C 1.609375 -6.019531 1.472656 -5.628906 1.453125 -5.140625 L 0.546875 -5.140625 C 0.578125 -5.910156 0.8125 -6.503906 1.25 -6.921875 C 1.6875 -7.335938 2.25 -7.546875 2.9375 -7.546875 C 3.644531 -7.546875 4.203125 -7.347656 4.609375 -6.953125 C 5.023438 -6.566406 5.234375 -6.03125 5.234375 -5.34375 C 5.234375 -4.78125 5.0625 -4.226562 4.71875 -3.6875 C 4.382812 -3.15625 4.003906 -2.6875 3.578125 -2.28125 C 3.148438 -1.875 2.597656 -1.398438 1.921875 -0.859375 L 5.453125 -0.859375 L 5.453125 -0.078125 L 0.515625 -0.078125 Z M 0.515625 -0.75 "/></g></g></g><g fill="#000000" fill-opacity="1"><g transform="translate(260.430299, 181.158123)"><g><path d="M 0.515625 -0.75 C 1.390625 -1.445312 2.070312 -2.019531 2.5625 -2.46875 C 3.050781 -2.914062 3.460938 -3.382812 3.796875 -3.875 C 4.140625 -4.363281 4.3125 -4.84375 4.3125 -5.3125 C 4.3125 -5.75 4.203125 -6.097656 3.984375 -6.359375 C 3.773438 -6.617188 3.429688 -6.75 2.953125 -6.75 C 2.484375 -6.75 2.117188 -6.601562 1.859375 -6.3125 C 1.609375 -6.019531 1.472656 -5.628906 1.453125 -5.140625 L 0.546875 -5.140625 C 0.578125 -5.910156 0.8125 -6.503906 1.25 -6.921875 C 1.6875 -7.335938 2.25 -7.546875 2.9375 -7.546875 C 3.644531 -7.546875 4.203125 -7.347656 4.609375 -6.953125 C 5.023438 -6.566406 5.234375 -6.03125 5.234375 -5.34375 C 5.234375 -4.78125 5.0625 -4.226562 4.71875 -3.6875 C 4.382812 -3.15625 4.003906 -2.6875 3.578125 -2.28125 C 3.148438 -1.875 2.597656 -1.398438 1.921875 -0.859375 L 5.453125 -0.859375 L 5.453125 -0.078125 L 0.515625 -0.078125 Z M 0.515625 -0.75 "/></g></g></g><g fill="#000000" fill-opacity="1"><g transform="translate(147.532037, 95.376937)"><g><path d="M 1.046875 -4.707031 C 2.523438 -5.679688 2.910156 -7.15625 1.902344 -8.691406 C 1.074219 -9.953125 -0.324219 -10.6875 -2.113281 -9.507812 L -3.699219 -8.464844 C -3.980469 -8.28125 -4.0625 -7.886719 -3.878906 -7.605469 L 0.558594 -0.863281 C 0.722656 -0.617188 1.0625 -0.546875 1.289062 -0.695312 C 1.527344 -0.851562 1.578125 -1.195312 1.421875 -1.429688 L -0.195312 -3.890625 Z M -2.800781 -7.851562 L -1.5625 -8.667969 C -0.289062 -9.503906 0.523438 -8.910156 1.03125 -8.132812 C 1.730469 -7.074219 1.515625 -6.222656 0.492188 -5.550781 L -0.75 -4.734375 Z M -2.800781 -7.851562 "/></g></g></g><g fill="#000000" fill-opacity="1"><g transform="translate(154.734725, 90.784915)"><g><path d="M 4.867188 -3.003906 C 4.753906 -3.234375 4.433594 -3.324219 4.191406 -3.203125 L 1.324219 -1.78125 L -0.0390625 -4.523438 L 2.496094 -5.777344 C 2.75 -5.90625 2.851562 -6.199219 2.722656 -6.453125 C 2.597656 -6.707031 2.28125 -6.796875 2.050781 -6.683594 L -0.484375 -5.425781 L -1.828125 -8.132812 L 0.925781 -9.5 C 1.179688 -9.625 1.296875 -9.914062 1.171875 -10.167969 C 1.042969 -10.421875 0.734375 -10.527344 0.480469 -10.402344 L -2.65625 -8.84375 C -2.96875 -8.691406 -3.0625 -8.296875 -2.929688 -8.03125 L 0.574219 -0.960938 C 0.78125 -0.546875 1.191406 -0.589844 1.574219 -0.78125 L 4.640625 -2.300781 C 4.894531 -2.425781 5 -2.738281 4.867188 -3.003906 Z M 4.867188 -3.003906 "/></g></g></g><g fill="#000000" fill-opacity="1"><g transform="translate(161.792324, 87.395463)"><g><path d="M 5.183594 -2.417969 C 5.097656 -2.660156 4.792969 -2.785156 4.535156 -2.695312 L 1.519531 -1.613281 L 0.488281 -4.496094 L 3.152344 -5.449219 C 3.417969 -5.546875 3.550781 -5.828125 3.457031 -6.09375 C 3.359375 -6.363281 3.054688 -6.484375 2.8125 -6.398438 L 0.148438 -5.445312 L -0.871094 -8.289062 L 2.023438 -9.324219 C 2.292969 -9.421875 2.441406 -9.695312 2.34375 -9.960938 C 2.25 -10.230469 1.953125 -10.371094 1.683594 -10.273438 L -1.609375 -9.09375 C -1.9375 -8.976562 -2.078125 -8.597656 -1.976562 -8.316406 L 0.683594 -0.890625 C 0.839844 -0.453125 1.253906 -0.449219 1.652344 -0.59375 L 4.875 -1.746094 C 5.144531 -1.84375 5.285156 -2.140625 5.183594 -2.417969 Z M 5.183594 -2.417969 "/></g></g></g><g fill="#000000" fill-opacity="1"><g transform="translate(169.189977, 84.842716)"><g><path d="M 5.261719 -1.324219 C 5.414062 -1.1875 5.554688 -1.140625 5.746094 -1.183594 C 6.109375 -1.265625 6.140625 -1.59375 6.085938 -1.832031 C 6.066406 -1.917969 6.039062 -1.980469 5.96875 -2.054688 L 2.070312 -5.589844 L 4.015625 -9.53125 C 4.058594 -9.636719 4.078125 -9.730469 4.058594 -9.875 C 4.003906 -10.230469 3.691406 -10.320312 3.503906 -10.277344 C 3.324219 -10.234375 3.164062 -10.078125 3.105469 -9.933594 L 0.820312 -5.273438 L -0.0195312 -8.9375 C -0.0820312 -9.203125 -0.363281 -9.390625 -0.640625 -9.328125 C -0.917969 -9.261719 -1.089844 -8.972656 -1.027344 -8.707031 L 0.828125 -0.601562 C 0.894531 -0.324219 1.175781 -0.136719 1.453125 -0.199219 C 1.726562 -0.261719 1.898438 -0.554688 1.835938 -0.832031 L 1.167969 -3.753906 L 1.621094 -4.664062 Z M 5.261719 -1.324219 "/></g></g></g><g fill="#000000" fill-opacity="1"><g transform="translate(177.180037, 83.170626)"><g/></g></g><g fill="#000000" fill-opacity="1"><g transform="translate(182.742278, 82.490929)"><g><path d="M 1.867188 -2.082031 L 5.132812 -2.132812 L 5.714844 -0.347656 C 5.785156 -0.117188 6.03125 0.0351562 6.226562 0.03125 C 6.535156 0.0273438 6.765625 -0.183594 6.761719 -0.492188 C 6.761719 -0.542969 6.746094 -0.648438 6.730469 -0.683594 L 4.089844 -8.613281 C 3.953125 -9.011719 3.78125 -9.292969 3.394531 -9.289062 C 3.019531 -9.28125 2.84375 -8.980469 2.734375 -8.59375 L 0.339844 -0.585938 C 0.328125 -0.546875 0.316406 -0.445312 0.316406 -0.390625 C 0.320312 -0.0820312 0.570312 0.121094 0.867188 0.117188 C 1.046875 0.113281 1.277344 -0.046875 1.351562 -0.277344 Z M 3.421875 -7.492188 L 4.820312 -3.136719 L 2.160156 -3.09375 Z M 3.421875 -7.492188 "/></g></g></g><g fill="#000000" fill-opacity="1"><g transform="translate(191.553986, 82.532739)"><g/></g></g><g fill="#000000" fill-opacity="1"><g transform="translate(197.134338, 83.054506)"><g><path d="M 2.96875 -4.738281 L 3.53125 -7.550781 L 5.203125 -7.214844 C 6.34375 -6.984375 6.597656 -6.273438 6.460938 -5.605469 C 6.253906 -4.578125 5.246094 -4.28125 4.425781 -4.445312 Z M 4.261719 -3.449219 C 5.378906 -3.226562 6.085938 -2.492188 5.875 -1.441406 C 5.691406 -0.527344 4.945312 -0.0351562 3.679688 -0.289062 L 2.136719 -0.597656 L 2.769531 -3.75 Z M 3.621094 0.726562 C 5.332031 1.070312 6.601562 0.179688 6.890625 -1.25 C 7.175781 -2.667969 6.226562 -3.253906 5.429688 -3.691406 C 6.445312 -3.894531 7.253906 -4.300781 7.472656 -5.386719 C 7.707031 -6.566406 7.113281 -7.859375 5.464844 -8.1875 L 3.324219 -8.617188 C 2.996094 -8.683594 2.664062 -8.476562 2.597656 -8.132812 L 1.046875 -0.421875 C 0.980469 -0.09375 1.191406 0.238281 1.53125 0.308594 Z M 3.621094 0.726562 "/></g></g></g><g fill="#000000" fill-opacity="1"><g transform="translate(205.625579, 84.868092)"><g><path d="M 3.320312 1.265625 C 5.191406 1.90625 6.605469 0.832031 7.199219 -0.902344 L 8.089844 -3.519531 C 8.667969 -5.21875 8.355469 -6.910156 6.339844 -7.59375 C 4.324219 -8.28125 3.042969 -7.136719 2.464844 -5.4375 L 1.574219 -2.820312 C 0.984375 -1.085938 1.449219 0.628906 3.320312 1.265625 Z M 6.015625 -6.640625 C 7.359375 -6.183594 7.554688 -5.148438 7.113281 -3.855469 L 6.21875 -1.238281 C 5.78125 0.046875 4.902344 0.742188 3.644531 0.3125 C 2.386719 -0.113281 2.117188 -1.203125 2.550781 -2.488281 L 3.445312 -5.101562 C 3.886719 -6.398438 4.671875 -7.101562 6.015625 -6.640625 Z M 6.015625 -6.640625 "/></g></g></g><g fill="#000000" fill-opacity="1"><g transform="translate(213.916946, 87.808306)"><g><path d="M 3.125 1.691406 C 4.898438 2.566406 6.441406 1.6875 7.253906 0.0429688 L 8.480469 -2.433594 C 9.273438 -4.042969 9.1875 -5.757812 7.277344 -6.703125 C 5.367188 -7.648438 3.949219 -6.675781 3.152344 -5.066406 L 1.929688 -2.589844 C 1.117188 -0.945312 1.355469 0.8125 3.125 1.691406 Z M 6.828125 -5.800781 C 8.101562 -5.171875 8.160156 -4.121094 7.554688 -2.894531 L 6.328125 -0.414062 C 5.726562 0.800781 4.765625 1.375 3.574219 0.785156 C 2.378906 0.199219 2.253906 -0.917969 2.855469 -2.132812 L 4.082031 -4.609375 C 4.6875 -5.835938 5.554688 -6.429688 6.828125 -5.800781 Z M 6.828125 -5.800781 "/></g></g></g><g fill="#000000" fill-opacity="1"><g transform="translate(221.752206, 91.826539)"><g><path d="M 4.585938 2.898438 C 4.589844 3.101562 4.65625 3.238281 4.816406 3.347656 C 5.128906 3.550781 5.386719 3.351562 5.523438 3.148438 C 5.570312 3.070312 5.597656 3.011719 5.605469 2.90625 L 5.476562 -2.351562 L 9.675781 -3.660156 C 9.777344 -3.699219 9.859375 -3.753906 9.949219 -3.867188 C 10.171875 -4.152344 10.019531 -4.4375 9.859375 -4.546875 C 9.707031 -4.644531 9.480469 -4.65625 9.335938 -4.597656 L 4.386719 -3.042969 L 6.460938 -6.175781 C 6.613281 -6.402344 6.554688 -6.734375 6.316406 -6.890625 C 6.078125 -7.050781 5.75 -6.972656 5.601562 -6.746094 L 1.007812 0.1875 C 0.851562 0.421875 0.910156 0.757812 1.144531 0.914062 C 1.382812 1.070312 1.710938 0.996094 1.867188 0.757812 L 3.523438 -1.742188 L 4.496094 -2.039062 Z M 4.585938 2.898438 "/></g></g></g><g clip-path="url(#b62086040c)"><path fill="#ffffff" d="M 162.28125 193.113281 C 162.214844 192.113281 162.539062 191.128906 162.835938 190.171875 C 165.066406 182.941406 166.039062 175.546875 165.753906 167.988281 C 165.457031 160.28125 163.816406 152.667969 163.566406 144.960938 C 163.394531 139.449219 163.921875 134.003906 165.148438 128.625 C 166.375 123.25 168.265625 118.113281 170.808594 113.222656 C 172.433594 110.117188 174.542969 106.871094 177.78125 105.277344 C 179.335938 104.511719 181.164062 104.359375 182.875 104.285156 C 184.65625 104.210938 186.425781 104.335938 188.179688 104.660156 C 191.730469 105.3125 194.980469 106.683594 197.933594 108.769531 C 199.699219 110.023438 205.300781 114.511719 207.699219 138.441406 C 208.3125 144.574219 211.773438 151.949219 213.726562 157.796875 C 216.765625 166.878906 217.714844 176.730469 214.167969 185.628906 C 210.621094 194.523438 209.320312 196.21875 203.699219 203.96875 C 201.738281 206.671875 199.765625 209.371094 197.539062 211.859375 C 196.761719 212.726562 195.78125 213.636719 194.621094 213.527344 C 193.167969 213.394531 192.351562 211.710938 192.359375 210.25 C 192.367188 208.789062 192.898438 207.359375 192.839844 205.902344 C 192.820312 205.386719 192.714844 204.84375 192.363281 204.464844 C 191.476562 203.515625 189.890625 204.222656 188.617188 203.976562 C 187.125 203.691406 186.253906 202.09375 186 200.597656 C 185.75 199.097656 185.90625 197.535156 185.472656 196.078125 C 185.335938 195.617188 185.125 195.15625 184.746094 194.859375 C 183.898438 194.207031 182.675781 194.648438 181.617188 194.507812 C 179.433594 194.214844 178.34375 191.566406 176.296875 190.761719 C 174.261719 189.960938 172.046875 191.191406 170.214844 192.378906 L 166.640625 194.683594 C 165.867188 195.183594 164.988281 195.707031 164.085938 195.53125 C 163.0625 195.335938 162.394531 194.269531 162.292969 193.230469 C 162.289062 193.191406 162.285156 193.152344 162.28125 193.113281 Z M 162.28125 193.113281 " fill-opacity="1" fill-rule="nonzero"/></g><path fill="#000000" d="M 179.183594 123.96875 C 179.183594 124.378906 179.164062 124.789062 179.132812 125.195312 C 179.097656 125.597656 179.046875 125.992188 178.980469 126.375 C 178.910156 126.753906 178.828125 127.117188 178.730469 127.460938 C 178.632812 127.804688 178.523438 128.121094 178.398438 128.414062 C 178.273438 128.703125 178.136719 128.964844 177.992188 129.195312 C 177.84375 129.425781 177.691406 129.617188 177.527344 129.777344 C 177.363281 129.933594 177.195312 130.054688 177.023438 130.132812 C 176.851562 130.214844 176.675781 130.253906 176.5 130.253906 C 176.324219 130.253906 176.152344 130.214844 175.976562 130.132812 C 175.804688 130.054688 175.636719 129.933594 175.476562 129.777344 C 175.3125 129.617188 175.15625 129.425781 175.011719 129.195312 C 174.863281 128.964844 174.730469 128.703125 174.605469 128.414062 C 174.480469 128.121094 174.367188 127.804688 174.269531 127.460938 C 174.171875 127.117188 174.089844 126.753906 174.023438 126.375 C 173.957031 125.992188 173.90625 125.597656 173.871094 125.195312 C 173.835938 124.789062 173.820312 124.378906 173.820312 123.96875 C 173.820312 123.554688 173.835938 123.144531 173.871094 122.742188 C 173.90625 122.335938 173.957031 121.941406 174.023438 121.5625 C 174.089844 121.179688 174.171875 120.816406 174.269531 120.472656 C 174.367188 120.128906 174.480469 119.8125 174.605469 119.519531 C 174.730469 119.230469 174.863281 118.96875 175.011719 118.738281 C 175.15625 118.511719 175.3125 118.316406 175.476562 118.15625 C 175.636719 118 175.804688 117.882812 175.976562 117.800781 C 176.152344 117.71875 176.324219 117.679688 176.5 117.679688 C 176.675781 117.679688 176.851562 117.71875 177.023438 117.800781 C 177.195312 117.882812 177.363281 118 177.527344 118.15625 C 177.691406 118.316406 177.84375 118.511719 177.992188 118.738281 C 178.136719 118.96875 178.273438 119.230469 178.398438 119.519531 C 178.523438 119.8125 178.632812 120.128906 178.730469 120.472656 C 178.828125 120.816406 178.910156 121.179688 178.980469 121.5625 C 179.046875 121.941406 179.097656 122.335938 179.132812 122.742188 C 179.164062 123.144531 179.183594 123.554688 179.183594 123.96875 Z M 179.183594 123.96875 " fill-opacity="1" fill-rule="nonzero"/><path fill="#000000" d="M 188.726562 123.820312 C 188.726562 124.234375 188.710938 124.644531 188.675781 125.046875 C 188.640625 125.453125 188.589844 125.847656 188.523438 126.226562 C 188.457031 126.609375 188.375 126.972656 188.273438 127.3125 C 188.175781 127.65625 188.066406 127.976562 187.941406 128.265625 C 187.816406 128.558594 187.683594 128.820312 187.535156 129.050781 C 187.390625 129.277344 187.234375 129.472656 187.070312 129.628906 C 186.910156 129.789062 186.742188 129.90625 186.570312 129.988281 C 186.394531 130.066406 186.222656 130.109375 186.046875 130.109375 C 185.871094 130.109375 185.695312 130.066406 185.523438 129.988281 C 185.347656 129.90625 185.183594 129.789062 185.019531 129.628906 C 184.855469 129.472656 184.703125 129.277344 184.554688 129.050781 C 184.410156 128.820312 184.273438 128.558594 184.148438 128.265625 C 184.023438 127.976562 183.914062 127.65625 183.816406 127.3125 C 183.71875 126.972656 183.636719 126.609375 183.566406 126.226562 C 183.5 125.847656 183.449219 125.453125 183.414062 125.046875 C 183.382812 124.644531 183.363281 124.234375 183.363281 123.820312 C 183.363281 123.40625 183.382812 123 183.414062 122.59375 C 183.449219 122.1875 183.5 121.796875 183.566406 121.414062 C 183.636719 121.035156 183.71875 120.671875 183.816406 120.328125 C 183.914062 119.984375 184.023438 119.667969 184.148438 119.375 C 184.273438 119.082031 184.410156 118.824219 184.554688 118.59375 C 184.703125 118.363281 184.855469 118.171875 185.019531 118.011719 C 185.183594 117.855469 185.347656 117.734375 185.523438 117.652344 C 185.695312 117.574219 185.871094 117.535156 186.046875 117.535156 C 186.222656 117.535156 186.394531 117.574219 186.570312 117.652344 C 186.742188 117.734375 186.910156 117.855469 187.070312 118.011719 C 187.234375 118.171875 187.390625 118.363281 187.535156 118.59375 C 187.683594 118.824219 187.816406 119.082031 187.941406 119.375 C 188.066406 119.667969 188.175781 119.984375 188.273438 120.328125 C 188.375 120.671875 188.457031 121.035156 188.523438 121.414062 C 188.589844 121.796875 188.640625 122.1875 188.675781 122.59375 C 188.710938 123 188.726562 123.40625 188.726562 123.820312 Z M 188.726562 123.820312 " fill-opacity="1" fill-rule="nonzero"/><g clip-path="url(#1bdc63ebb1)"><path fill="#000000" d="M 211.382812 144.066406 C 205.996094 150.230469 200.816406 163.035156 197.484375 164.875 C 197.464844 164.972656 197.445312 165.070312 197.429688 165.164062 C 197.265625 166.03125 197.148438 166.835938 197.050781 167.546875 C 196.957031 168.257812 196.863281 168.875 196.789062 169.378906 C 196.71875 169.878906 196.628906 170.261719 196.558594 170.515625 C 196.488281 170.769531 196.433594 170.898438 196.433594 170.898438 C 196.421875 170.917969 196.394531 170.921875 196.371094 170.902344 C 196.355469 170.890625 196.34375 170.875 196.339844 170.859375 C 196.339844 170.859375 196.304688 170.691406 196.273438 170.390625 C 196.242188 170.089844 196.214844 169.660156 196.242188 169.136719 C 196.269531 168.613281 196.320312 167.976562 196.421875 167.269531 C 196.523438 166.5625 196.664062 165.761719 196.835938 164.902344 C 197.667969 160.703125 199.117188 156.578125 201.074219 152.742188 C 202.117188 150.695312 203.34375 148.660156 204.6875 146.757812 C 205.304688 145.882812 205.976562 145.007812 206.664062 144.164062 C 206.992188 143.761719 207.332031 143.367188 207.664062 143.003906 C 207.996094 142.636719 208.339844 142.285156 208.667969 141.953125 C 208.832031 141.789062 209 141.628906 209.164062 141.476562 C 209.328125 141.320312 209.488281 141.167969 209.652344 141.023438 C 209.972656 140.738281 210.289062 140.464844 210.59375 140.21875 C 211.199219 139.722656 211.757812 139.304688 212.230469 138.976562 C 213.179688 138.3125 213.78125 137.976562 213.78125 137.976562 C 213.78125 137.976562 213.625 138.054688 213.34375 138.214844 C 213.0625 138.371094 212.652344 138.613281 212.160156 138.933594 C 211.667969 139.253906 211.078125 139.65625 210.449219 140.140625 C 210.136719 140.382812 209.808594 140.652344 209.46875 140.933594 C 209.300781 141.074219 209.136719 141.222656 208.964844 141.375 C 208.792969 141.527344 208.617188 141.6875 208.445312 141.847656 C 208.101562 142.171875 207.75 142.523438 207.40625 142.890625 C 207.234375 143.070312 207.0625 143.257812 206.890625 143.449219 L 206.761719 143.59375 L 206.628906 143.742188 C 206.542969 143.839844 206.460938 143.9375 206.375 144.039062 C 206.035156 144.441406 205.691406 144.855469 205.355469 145.285156 C 205.1875 145.5 205.019531 145.71875 204.851562 145.941406 C 204.683594 146.160156 204.519531 146.390625 204.355469 146.617188 C 204.027344 147.074219 203.699219 147.546875 203.378906 148.027344 C 203.0625 148.503906 202.746094 149 202.445312 149.5 C 201.835938 150.511719 201.25 151.546875 200.710938 152.585938 C 199.648438 154.628906 198.707031 156.773438 197.960938 158.921875 C 197.617188 159.90625 197.300781 160.925781 197.027344 161.945312 C 196.859375 162.582031 196.707031 163.199219 196.578125 163.789062 C 195.792969 161.824219 195.019531 159.503906 195.464844 157.433594 C 196.015625 158.246094 196.46875 159.285156 196.617188 160.21875 C 196.253906 147.402344 205.308594 138.992188 217.832031 135.691406 C 215.460938 137.601562 214.121094 140.488281 212.355469 142.875 C 212.058594 143.273438 211.59375 143.550781 211.054688 143.65625 C 210.183594 143.824219 209.296875 144.109375 208.550781 144.460938 C 209.449219 144.226562 210.421875 144.078125 211.375 144.070312 Z M 211.382812 144.066406 " fill-opacity="1" fill-rule="evenodd"/></g><g fill="#000000" fill-opacity="1"><g transform="translate(104.870579, 244.062157)"><g><path d="M 19.671875 -30.957031 C 14.457031 -30.957031 2.808594 -23.476562 2.808594 -11.011719 C 2.808594 -10.199219 2.855469 -9.472656 2.902344 -8.792969 C 0.5 -8.113281 -1.585938 -7.976562 -2.945312 -7.976562 C -4.078125 -7.976562 -4.714844 -8.066406 -4.714844 -8.066406 L -4.984375 -7.386719 C -4.984375 -7.386719 -4.035156 -7.207031 -2.492188 -7.207031 C -1.085938 -7.207031 0.816406 -7.34375 2.945312 -7.929688 C 3.851562 -0.226562 8.066406 0.0898438 8.929688 0.0898438 C 11.601562 0.0898438 15.09375 -2.265625 18.308594 -7.839844 C 17.539062 -4.984375 16.679688 -1.675781 16.089844 1.179688 C 14.140625 3.261719 12.191406 5.53125 11.195312 7.25 C 10.332031 8.703125 8.382812 12.507812 8.382812 16.179688 C 8.382812 17.359375 8.792969 19.351562 10.0625 19.351562 C 10.96875 19.261719 15.136719 16.453125 16.996094 9.789062 C 17.539062 7.75 18.945312 2.765625 20.304688 -2.449219 C 22.390625 -4.394531 23.386719 -5.074219 23.386719 -5.167969 C 23.386719 -5.347656 23.207031 -5.621094 22.976562 -5.800781 C 22.933594 -5.800781 22.027344 -4.894531 20.710938 -3.625 C 22.480469 -10.015625 23.703125 -14.503906 23.703125 -15.09375 C 23.703125 -15.363281 22.117188 -15.453125 21.257812 -15.453125 C 20.441406 -15.453125 20.53125 -15.320312 19.488281 -11.785156 C 17.675781 -8.339844 13.234375 -0.726562 9.066406 -0.726562 C 7.023438 -0.726562 6.570312 -4.621094 6.527344 -9.246094 C 11.464844 -11.558594 17.042969 -16.316406 21.121094 -26.015625 C 21.527344 -26.96875 21.800781 -27.964844 21.800781 -28.824219 C 21.800781 -30.046875 21.257812 -30.957031 19.671875 -30.957031 Z M 19.671875 -30.230469 C 20.578125 -30.230469 20.894531 -29.324219 20.894531 -28.371094 C 20.894531 -27.464844 20.621094 -26.511719 20.441406 -26.105469 C 16.589844 -16.996094 11.285156 -12.417969 6.527344 -10.152344 C 6.617188 -18.265625 14.050781 -30.230469 19.671875 -30.230469 Z M 10.105469 18.535156 C 9.292969 18.535156 9.199219 17.222656 9.15625 16.949219 L 9.15625 16.632812 C 9.15625 14.1875 10.425781 8.382812 15.816406 2.3125 C 15.773438 2.902344 15.636719 3.355469 15.546875 3.851562 C 15.546875 3.851562 12.371094 18.402344 10.105469 18.535156 Z M 10.105469 18.535156 "/></g></g></g><g fill="#000000" fill-opacity="1"><g transform="translate(130.836912, 244.062157)"><g><path d="M 5.257812 -28.6875 L 0.453125 -0.226562 C 0.453125 -0.226562 0.632812 -0.179688 0.953125 -0.179688 C 1.632812 -0.179688 2.945312 -0.316406 3.671875 -1.222656 C 3.851562 -1.496094 4.214844 -2.539062 4.578125 -4.125 C 5.890625 -7.839844 8.835938 -15.953125 9.835938 -15.953125 C 10.105469 -15.953125 10.921875 -12.417969 11.195312 -7.613281 C 11.464844 -4.304688 12.191406 -0.226562 15.863281 -0.226562 C 18.535156 -0.226562 20.078125 -3.261719 20.078125 -3.625 C 20.078125 -3.851562 19.625 -3.988281 19.625 -3.988281 C 19.625 -3.988281 17.992188 -0.996094 16.136719 -0.996094 C 15.363281 -0.996094 14.867188 -10.378906 14.230469 -13.777344 C 13.914062 -15.5 13.007812 -17.3125 11.105469 -17.3125 C 8.792969 -17.3125 6.84375 -13.054688 5.710938 -9.5625 C 7.117188 -16.816406 8.609375 -26.378906 8.609375 -28.328125 C 8.609375 -28.960938 7.929688 -29.050781 7.023438 -29.050781 C 6.253906 -29.050781 5.4375 -28.914062 5.257812 -28.6875 Z M 5.257812 -28.6875 "/></g></g></g><g fill="#000000" fill-opacity="1"><g transform="translate(150.005776, 244.062157)"><g><path d="M 6.300781 -17.085938 C 3.082031 -15.90625 0 -12.371094 0 -8.113281 C 0 -7.023438 0.226562 -5.9375 0.632812 -4.757812 C 1.949219 -0.953125 3.941406 -0.179688 5.484375 -0.179688 C 10.515625 -0.179688 11.601562 -7.613281 11.648438 -8.066406 C 11.785156 -9.109375 11.828125 -10.0625 11.828125 -10.878906 C 11.828125 -16.269531 9.699219 -17.269531 7.433594 -17.269531 C 7.023438 -17.269531 6.664062 -17.222656 6.300781 -17.085938 Z M 6.980469 -1.359375 C 6.796875 -1.269531 6.664062 -1.269531 6.527344 -1.269531 C 5.03125 -1.269531 3.625 -5.574219 3.625 -8.835938 C 3.625 -13.054688 5.300781 -16.542969 7.34375 -16.542969 C 10.558594 -16.542969 11.011719 -12.644531 11.011719 -10.921875 C 11.011719 -9.519531 10.742188 -8.519531 10.742188 -8.519531 L 10.785156 -8.476562 C 10.515625 -7.160156 9.425781 -2.175781 6.980469 -1.359375 Z M 6.980469 -1.359375 "/></g></g></g><g fill="#000000" fill-opacity="1"><g transform="translate(163.192859, 244.062157)"><g><path d="M 0.816406 -9.15625 C 0.769531 -9.109375 0.726562 -9.066406 0.726562 -8.972656 C 0.726562 -8.792969 0.953125 -8.519531 1.085938 -8.519531 C 1.179688 -8.519531 2.3125 -9.15625 3.714844 -10.0625 C 4.894531 -7.976562 7.070312 -6.527344 7.070312 -4.214844 C 7.070312 -1.042969 4.214844 -0.859375 3.128906 -0.859375 C 2.3125 -0.859375 0.453125 -1.675781 0.453125 -3.035156 C 0.453125 -3.808594 1.222656 -4.078125 1.222656 -4.984375 C 1.222656 -5.9375 0.542969 -5.9375 0 -5.9375 C -0.363281 -5.9375 -0.90625 -5.121094 -0.90625 -3.671875 C -0.90625 -2.175781 0.542969 -0.226562 2.992188 -0.226562 C 5.4375 -0.226562 7.796875 -0.589844 9.5625 -4.214844 C 9.789062 -4.714844 9.925781 -5.210938 9.925781 -5.710938 C 9.925781 -8.25 7.296875 -10.652344 6.253906 -11.964844 C 7.839844 -13.324219 9.246094 -14.730469 9.246094 -15.816406 C 9.246094 -16.589844 8.835938 -17.3125 7.839844 -17.3125 C 6.84375 -17.3125 2.992188 -16.589844 2.992188 -12.78125 C 2.992188 -12.054688 3.128906 -11.464844 3.355469 -10.878906 Z M 7.386719 -16.589844 C 8.429688 -16.589844 8.429688 -16.136719 8.429688 -15.636719 C 8.429688 -15.273438 8.25 -14.640625 5.800781 -12.734375 C 5.710938 -13.007812 5.710938 -13.324219 5.710938 -13.6875 C 5.710938 -14.957031 6.164062 -16.589844 7.386719 -16.589844 Z M 7.386719 -16.589844 "/></g></g></g><g fill="#000000" fill-opacity="1"><g transform="translate(175.382991, 244.062157)"><g><path d="M -0.726562 -19.851562 C -0.726562 -19.851562 -0.90625 -19.535156 -0.90625 -19.308594 C -0.90625 -19.082031 -0.816406 -18.945312 -0.363281 -18.945312 C 1.359375 -18.988281 2.675781 -19.082031 3.988281 -19.125 C 3.035156 -14.414062 1.765625 -7.34375 1.765625 -5.257812 C 1.765625 -1.359375 3.398438 -0.226562 4.578125 -0.226562 C 5.890625 -0.226562 8.25 -1.179688 10.425781 -4.304688 L 10.425781 -4.351562 C 10.425781 -4.578125 10.242188 -5.121094 10.152344 -5.074219 C 9.925781 -4.804688 7.117188 -1.085938 4.894531 -1.085938 C 4.578125 -1.085938 4.488281 -1.496094 4.488281 -1.949219 C 4.488281 -5.347656 6.527344 -13.914062 7.75 -19.214844 L 10.105469 -19.214844 C 11.785156 -19.214844 12.238281 -19.171875 12.28125 -19.125 C 12.28125 -19.171875 12.328125 -19.308594 12.328125 -19.398438 C 12.328125 -20.167969 10.199219 -20.078125 7.929688 -20.078125 C 8.382812 -21.890625 8.65625 -23.207031 8.65625 -23.523438 C 8.65625 -23.75 7.929688 -23.839844 7.160156 -23.839844 C 6.253906 -23.839844 5.257812 -23.75 5.03125 -23.613281 C 4.941406 -23.566406 4.578125 -22.070312 4.167969 -20.03125 C 1.496094 -19.941406 -0.726562 -19.851562 -0.726562 -19.851562 Z M -0.726562 -19.851562 "/></g></g></g><g fill="#000000" fill-opacity="1"><g transform="translate(186.80274, 244.062157)"><g><path d="M 22.523438 -17.269531 C 22.523438 -17.222656 17.628906 -1.632812 16.316406 -1.632812 C 15 -1.632812 14.640625 -15.953125 14.640625 -16.949219 C 14.640625 -17.359375 12.554688 -17.359375 11.875 -17.359375 C 11.148438 -17.359375 10.921875 -17.132812 10.921875 -15.726562 C 10.921875 -14.730469 11.011719 -13.324219 11.148438 -11.875 C 9.699219 -7.523438 7.613281 -1.632812 6.753906 -1.632812 C 5.394531 -1.632812 5.074219 -15.953125 5.074219 -16.949219 C 5.074219 -17.359375 3.082031 -17.359375 2.265625 -17.359375 C 1.585938 -17.359375 1.359375 -17.132812 1.359375 -15.773438 C 1.359375 -13.28125 1.859375 -8.113281 2.128906 -6.117188 C 2.402344 -3.988281 3.535156 -0.0898438 5.664062 -0.0898438 C 7.839844 -0.0898438 9.972656 -4.894531 11.375 -9.066406 L 11.738281 -6.117188 C 12.011719 -3.988281 13.144531 -0.0898438 15.226562 -0.0898438 C 18.855469 -0.0898438 23.660156 -16.90625 23.660156 -17.132812 C 23.523438 -17.269531 23.296875 -17.3125 23.070312 -17.3125 C 22.796875 -17.3125 22.523438 -17.269531 22.523438 -17.269531 Z M 22.523438 -17.269531 "/></g></g></g><g fill="#000000" fill-opacity="1"><g transform="translate(210.457928, 244.062157)"><g><path d="M 11.964844 -16.089844 C 11.964844 -17.496094 9.472656 -17.359375 8.835938 -17.359375 C 8.339844 -17.359375 8.382812 -17.085938 7.523438 -15.363281 C 6.753906 -14.59375 5.03125 -13.007812 4.125 -13.007812 C 3.582031 -13.007812 3.398438 -13.28125 3.398438 -13.640625 C 3.398438 -14.867188 4.757812 -14.503906 4.757812 -15.816406 C 4.757812 -16.453125 4.035156 -17.3125 3.035156 -17.3125 C 2.085938 -17.3125 0.90625 -16.136719 0.90625 -14.59375 C 0.90625 -13.007812 1.949219 -12.144531 3.035156 -12.144531 C 3.898438 -12.144531 5.300781 -12.464844 6.617188 -13.597656 C 4.984375 -10.199219 3.714844 -6.890625 3.714844 -4.035156 C 3.714844 -1.949219 4.488281 -0.226562 6.933594 -0.226562 C 9.292969 -0.226562 11.964844 -4.304688 11.964844 -4.847656 C 11.964844 -5.074219 11.464844 -5.257812 11.464844 -5.257812 C 11.464844 -5.257812 9.109375 -0.996094 7.25 -0.996094 C 7.023438 -0.996094 6.933594 -1.359375 6.933594 -1.949219 C 6.933594 -2.855469 7.160156 -4.214844 7.386719 -5.121094 C 7.886719 -7.207031 11.964844 -14.820312 11.964844 -16.089844 Z M 11.964844 -16.089844 "/></g></g></g><g fill="#000000" fill-opacity="1"><g transform="translate(223.780967, 244.062157)"><g><path d="M 8.476562 -17.085938 C 8.292969 -17.222656 7.613281 -17.3125 6.796875 -17.3125 C 5.800781 -17.3125 4.714844 -17.222656 4.441406 -17.085938 C 4.167969 -16.90625 0.453125 -8.519531 0.453125 -5.257812 C 0.453125 -1.359375 1.949219 -0.226562 3.582031 -0.226562 C 4.941406 -0.226562 6.4375 -0.726562 8.882812 -3.171875 C 8.882812 -3.171875 8.929688 -3.21875 8.929688 -3.261719 C 8.929688 -3.488281 8.65625 -4.035156 8.609375 -3.988281 C 8.339844 -3.671875 6.117188 -1.085938 3.941406 -1.085938 C 3.582031 -1.085938 3.535156 -1.496094 3.535156 -1.949219 C 3.535156 -6.84375 8.476562 -16.363281 8.476562 -17.042969 Z M 8.339844 -22.84375 C 7.703125 -22.84375 6.117188 -22.207031 6.117188 -20.9375 C 6.117188 -20.167969 6.796875 -19.535156 7.296875 -19.535156 C 8.476562 -19.535156 9.789062 -20.484375 9.789062 -21.484375 C 9.789062 -22.523438 9.109375 -22.84375 8.339844 -22.84375 Z M 8.339844 -22.84375 "/></g></g></g><g fill="#000000" fill-opacity="1"><g transform="translate(234.02249, 244.062157)"><g><path d="M -0.726562 -19.851562 C -0.726562 -19.851562 -0.90625 -19.535156 -0.90625 -19.308594 C -0.90625 -19.082031 -0.816406 -18.945312 -0.363281 -18.945312 C 1.359375 -18.988281 2.675781 -19.082031 3.988281 -19.125 C 3.035156 -14.414062 1.765625 -7.34375 1.765625 -5.257812 C 1.765625 -1.359375 3.398438 -0.226562 4.578125 -0.226562 C 5.890625 -0.226562 8.25 -1.179688 10.425781 -4.304688 L 10.425781 -4.351562 C 10.425781 -4.578125 10.242188 -5.121094 10.152344 -5.074219 C 9.925781 -4.804688 7.117188 -1.085938 4.894531 -1.085938 C 4.578125 -1.085938 4.488281 -1.496094 4.488281 -1.949219 C 4.488281 -5.347656 6.527344 -13.914062 7.75 -19.214844 L 10.105469 -19.214844 C 11.785156 -19.214844 12.238281 -19.171875 12.28125 -19.125 C 12.28125 -19.171875 12.328125 -19.308594 12.328125 -19.398438 C 12.328125 -20.167969 10.199219 -20.078125 7.929688 -20.078125 C 8.382812 -21.890625 8.65625 -23.207031 8.65625 -23.523438 C 8.65625 -23.75 7.929688 -23.839844 7.160156 -23.839844 C 6.253906 -23.839844 5.257812 -23.75 5.03125 -23.613281 C 4.941406 -23.566406 4.578125 -22.070312 4.167969 -20.03125 C 1.496094 -19.941406 -0.726562 -19.851562 -0.726562 -19.851562 Z M -0.726562 -19.851562 "/></g></g></g><g fill="#000000" fill-opacity="1"><g transform="translate(245.44224, 244.062157)"><g><path d="M 10.742188 -3.808594 C 10.742188 -3.808594 8.382812 -1.675781 5.800781 -1.179688 C 4.53125 -1.179688 3.171875 -5.257812 2.992188 -8.113281 C 6.527344 -9.972656 8.519531 -12.960938 8.519531 -14.957031 C 8.519531 -16.226562 7.660156 -17.222656 6.480469 -17.222656 C 2.808594 -17.222656 -0.453125 -12.371094 -0.453125 -7.75 C -0.453125 -1.222656 3.355469 -0.273438 5.53125 -0.273438 C 6.617188 -0.273438 8.25 -0.40625 11.375 -3.445312 L 11.375 -3.488281 C 11.375 -3.625 10.742188 -3.808594 10.742188 -3.808594 Z M 5.574219 -16.40625 C 5.9375 -16.542969 6.210938 -16.589844 6.4375 -16.589844 C 7.570312 -16.589844 7.703125 -15.410156 7.75 -15.136719 C 7.75 -14.546875 7.386719 -11.828125 2.855469 -8.835938 L 2.855469 -9.425781 C 2.855469 -12.78125 3.941406 -15.679688 5.574219 -16.40625 Z M 5.574219 -16.40625 "/></g></g></g><g fill="#000000" fill-opacity="1"><g transform="translate(256.816671, 244.062157)"><g><path d="M 11.964844 -16.089844 C 11.964844 -17.496094 9.472656 -17.359375 8.835938 -17.359375 C 8.339844 -17.359375 8.382812 -17.085938 7.523438 -15.363281 C 6.753906 -14.59375 5.03125 -13.007812 4.125 -13.007812 C 3.582031 -13.007812 3.398438 -13.28125 3.398438 -13.640625 C 3.398438 -14.867188 4.757812 -14.503906 4.757812 -15.816406 C 4.757812 -16.453125 4.035156 -17.3125 3.035156 -17.3125 C 2.085938 -17.3125 0.90625 -16.136719 0.90625 -14.59375 C 0.90625 -13.007812 1.949219 -12.144531 3.035156 -12.144531 C 3.898438 -12.144531 5.300781 -12.464844 6.617188 -13.597656 C 4.984375 -10.199219 3.714844 -6.890625 3.714844 -4.035156 C 3.714844 -1.949219 4.488281 -0.226562 6.933594 -0.226562 C 9.292969 -0.226562 11.964844 -4.304688 11.964844 -4.847656 C 11.964844 -5.074219 11.464844 -5.257812 11.464844 -5.257812 C 11.464844 -5.257812 9.109375 -0.996094 7.25 -0.996094 C 7.023438 -0.996094 6.933594 -1.359375 6.933594 -1.949219 C 6.933594 -2.855469 7.160156 -4.214844 7.386719 -5.121094 C 7.886719 -7.207031 11.964844 -14.820312 11.964844 -16.089844 Z M 11.964844 -16.089844 "/></g></g></g></svg>