<svg xmlns="http://www.w3.org/2000/svg" xmlns:xlink="http://www.w3.org/1999/xlink" width="275" zoomAndPan="magnify" viewBox="0 0 206.25 259.500006" height="346" preserveAspectRatio="xMidYMid meet" version="1.0"><defs><clipPath id="16e0a18ecb"><path d="M 75.28125 75.089844 L 130 75.089844 L 130 184.195312 L 75.28125 184.195312 Z M 75.28125 75.089844 " clip-rule="nonzero"/></clipPath><clipPath id="0ce2b8ddc5"><path d="M 108.285156 106.476562 L 130.703125 106.476562 L 130.703125 141.597656 L 108.285156 141.597656 Z M 108.285156 106.476562 " clip-rule="nonzero"/></clipPath></defs><g clip-path="url(#16e0a18ecb)"><path fill="#000000" d="M 75.351562 163.703125 C 75.285156 162.710938 75.605469 161.726562 75.902344 160.773438 C 78.125 153.570312 79.09375 146.203125 78.808594 138.671875 C 78.511719 130.992188 76.878906 123.40625 76.628906 115.726562 C 76.457031 110.234375 76.984375 104.808594 78.207031 99.449219 C 79.429688 94.09375 81.308594 88.976562 83.847656 84.105469 C 85.464844 81.011719 87.566406 77.777344 90.796875 76.1875 C 92.34375 75.425781 94.164062 75.273438 95.871094 75.199219 C 97.644531 75.125 99.40625 75.25 101.152344 75.570312 C 104.691406 76.222656 107.933594 77.589844 110.871094 79.667969 C 112.632812 80.917969 118.214844 85.390625 120.601562 109.230469 C 121.214844 115.34375 124.664062 122.691406 126.609375 128.515625 C 129.636719 137.566406 130.582031 147.382812 127.046875 156.246094 C 123.511719 165.109375 122.21875 166.800781 116.617188 174.523438 C 114.664062 177.214844 112.699219 179.90625 110.480469 182.382812 C 109.703125 183.246094 108.726562 184.152344 107.574219 184.046875 C 106.125 183.914062 105.308594 182.234375 105.316406 180.78125 C 105.324219 179.324219 105.855469 177.902344 105.800781 176.445312 C 105.78125 175.933594 105.671875 175.390625 105.320312 175.015625 C 104.4375 174.066406 102.859375 174.777344 101.589844 174.53125 C 100.105469 174.242188 99.234375 172.652344 98.984375 171.160156 C 98.734375 169.667969 98.890625 168.109375 98.457031 166.660156 C 98.320312 166.199219 98.113281 165.738281 97.734375 165.445312 C 96.890625 164.792969 95.671875 165.234375 94.613281 165.09375 C 92.441406 164.804688 91.355469 162.164062 89.3125 161.359375 C 87.289062 160.566406 85.082031 161.792969 83.253906 162.972656 L 79.691406 165.269531 C 78.921875 165.769531 78.046875 166.289062 77.148438 166.113281 C 76.128906 165.917969 75.460938 164.855469 75.359375 163.820312 C 75.355469 163.78125 75.351562 163.742188 75.351562 163.703125 Z M 75.351562 163.703125 " fill-opacity="1" fill-rule="nonzero"/></g><path fill="#ffffff" d="M 92.191406 94.808594 C 92.191406 95.21875 92.171875 95.628906 92.140625 96.03125 C 92.105469 96.433594 92.054688 96.828125 91.988281 97.207031 C 91.917969 97.585938 91.835938 97.949219 91.738281 98.289062 C 91.640625 98.632812 91.53125 98.949219 91.40625 99.238281 C 91.285156 99.53125 91.148438 99.789062 91.003906 100.019531 C 90.855469 100.246094 90.703125 100.441406 90.539062 100.597656 C 90.378906 100.753906 90.210938 100.875 90.039062 100.953125 C 89.867188 101.035156 89.695312 101.074219 89.519531 101.074219 C 89.34375 101.074219 89.167969 101.035156 88.996094 100.953125 C 88.824219 100.875 88.65625 100.753906 88.496094 100.597656 C 88.332031 100.441406 88.179688 100.246094 88.035156 100.019531 C 87.886719 99.789062 87.753906 99.53125 87.628906 99.238281 C 87.503906 98.949219 87.394531 98.632812 87.296875 98.289062 C 87.199219 97.949219 87.117188 97.585938 87.050781 97.207031 C 86.980469 96.828125 86.929688 96.433594 86.898438 96.03125 C 86.863281 95.628906 86.847656 95.21875 86.847656 94.808594 C 86.847656 94.398438 86.863281 93.992188 86.898438 93.585938 C 86.929688 93.183594 86.980469 92.792969 87.050781 92.410156 C 87.117188 92.03125 87.199219 91.671875 87.296875 91.328125 C 87.394531 90.988281 87.503906 90.671875 87.628906 90.378906 C 87.753906 90.089844 87.886719 89.828125 88.035156 89.601562 C 88.179688 89.371094 88.332031 89.179688 88.496094 89.019531 C 88.65625 88.863281 88.824219 88.746094 88.996094 88.664062 C 89.167969 88.585938 89.34375 88.542969 89.519531 88.542969 C 89.695312 88.542969 89.867188 88.585938 90.039062 88.664062 C 90.210938 88.746094 90.378906 88.863281 90.539062 89.019531 C 90.703125 89.179688 90.855469 89.371094 91.003906 89.601562 C 91.148438 89.828125 91.285156 90.089844 91.40625 90.378906 C 91.53125 90.671875 91.640625 90.988281 91.738281 91.328125 C 91.835938 91.671875 91.917969 92.03125 91.988281 92.410156 C 92.054688 92.792969 92.105469 93.183594 92.140625 93.585938 C 92.171875 93.992188 92.191406 94.398438 92.191406 94.808594 Z M 92.191406 94.808594 " fill-opacity="1" fill-rule="nonzero"/><path fill="#ffffff" d="M 101.699219 94.664062 C 101.699219 95.074219 101.683594 95.480469 101.648438 95.886719 C 101.613281 96.289062 101.5625 96.679688 101.496094 97.0625 C 101.429688 97.441406 101.347656 97.800781 101.25 98.144531 C 101.152344 98.484375 101.042969 98.800781 100.917969 99.09375 C 100.792969 99.382812 100.65625 99.644531 100.511719 99.871094 C 100.367188 100.101562 100.210938 100.292969 100.050781 100.453125 C 99.886719 100.609375 99.722656 100.726562 99.550781 100.808594 C 99.378906 100.886719 99.203125 100.929688 99.027344 100.929688 C 98.851562 100.929688 98.679688 100.886719 98.507812 100.808594 C 98.335938 100.726562 98.167969 100.609375 98.003906 100.453125 C 97.84375 100.292969 97.6875 100.101562 97.542969 99.871094 C 97.398438 99.644531 97.261719 99.382812 97.136719 99.09375 C 97.015625 98.800781 96.902344 98.484375 96.804688 98.144531 C 96.707031 97.800781 96.625 97.441406 96.558594 97.0625 C 96.492188 96.679688 96.441406 96.289062 96.40625 95.886719 C 96.371094 95.480469 96.355469 95.074219 96.355469 94.664062 C 96.355469 94.253906 96.371094 93.84375 96.40625 93.441406 C 96.441406 93.039062 96.492188 92.644531 96.558594 92.265625 C 96.625 91.886719 96.707031 91.523438 96.804688 91.183594 C 96.902344 90.839844 97.015625 90.523438 97.136719 90.234375 C 97.261719 89.941406 97.398438 89.683594 97.542969 89.453125 C 97.6875 89.226562 97.84375 89.03125 98.003906 88.875 C 98.167969 88.71875 98.335938 88.597656 98.507812 88.519531 C 98.679688 88.4375 98.851562 88.398438 99.027344 88.398438 C 99.203125 88.398438 99.378906 88.4375 99.550781 88.519531 C 99.722656 88.597656 99.886719 88.71875 100.050781 88.875 C 100.210938 89.03125 100.367188 89.226562 100.511719 89.453125 C 100.65625 89.683594 100.792969 89.941406 100.917969 90.234375 C 101.042969 90.523438 101.152344 90.839844 101.25 91.183594 C 101.347656 91.523438 101.429688 91.886719 101.496094 92.265625 C 101.5625 92.644531 101.613281 93.039062 101.648438 93.441406 C 101.683594 93.84375 101.699219 94.253906 101.699219 94.664062 Z M 101.699219 94.664062 " fill-opacity="1" fill-rule="nonzero"/><g clip-path="url(#0ce2b8ddc5)"><path fill="#ffffff" d="M 124.273438 114.835938 C 118.90625 120.976562 113.746094 133.734375 110.425781 135.570312 C 110.40625 135.667969 110.386719 135.761719 110.371094 135.859375 C 110.207031 136.722656 110.089844 137.523438 109.996094 138.230469 C 109.898438 138.9375 109.808594 139.554688 109.734375 140.054688 C 109.660156 140.554688 109.574219 140.9375 109.5 141.191406 C 109.433594 141.441406 109.378906 141.570312 109.378906 141.570312 C 109.367188 141.589844 109.339844 141.59375 109.316406 141.574219 C 109.300781 141.5625 109.289062 141.546875 109.285156 141.53125 C 109.285156 141.53125 109.25 141.363281 109.21875 141.0625 C 109.1875 140.765625 109.160156 140.335938 109.1875 139.8125 C 109.214844 139.292969 109.265625 138.660156 109.367188 137.953125 C 109.46875 137.25 109.609375 136.453125 109.777344 135.597656 C 110.609375 131.414062 112.054688 127.300781 114.003906 123.480469 C 115.042969 121.4375 116.261719 119.414062 117.601562 117.519531 C 118.21875 116.644531 118.886719 115.773438 119.574219 114.933594 C 119.898438 114.53125 120.238281 114.140625 120.566406 113.777344 C 120.898438 113.410156 121.238281 113.058594 121.566406 112.730469 C 121.730469 112.566406 121.898438 112.40625 122.0625 112.253906 C 122.226562 112.097656 122.386719 111.949219 122.546875 111.804688 C 122.871094 111.519531 123.183594 111.25 123.488281 111 C 124.089844 110.507812 124.648438 110.089844 125.117188 109.761719 C 126.0625 109.105469 126.664062 108.765625 126.664062 108.765625 C 126.664062 108.765625 126.507812 108.847656 126.226562 109.003906 C 125.945312 109.164062 125.539062 109.402344 125.046875 109.71875 C 124.558594 110.039062 123.96875 110.441406 123.34375 110.925781 C 123.03125 111.167969 122.703125 111.433594 122.367188 111.714844 C 122.199219 111.855469 122.035156 112.003906 121.863281 112.15625 C 121.691406 112.304688 121.519531 112.464844 121.347656 112.625 C 121.003906 112.949219 120.652344 113.296875 120.308594 113.664062 C 120.140625 113.84375 119.96875 114.03125 119.796875 114.222656 L 119.667969 114.363281 L 119.535156 114.511719 C 119.453125 114.609375 119.367188 114.707031 119.285156 114.808594 C 118.945312 115.207031 118.605469 115.621094 118.269531 116.050781 C 118.101562 116.265625 117.933594 116.480469 117.765625 116.703125 C 117.601562 116.921875 117.433594 117.148438 117.273438 117.378906 C 116.945312 117.832031 116.617188 118.300781 116.300781 118.78125 C 115.984375 119.257812 115.667969 119.75 115.371094 120.25 C 114.761719 121.257812 114.175781 122.289062 113.636719 123.324219 C 112.578125 125.363281 111.644531 127.496094 110.902344 129.636719 C 110.558594 130.621094 110.242188 131.636719 109.972656 132.648438 C 109.800781 133.285156 109.652344 133.898438 109.519531 134.488281 C 108.742188 132.527344 107.96875 130.214844 108.410156 128.152344 C 108.960938 128.964844 109.410156 130 109.558594 130.925781 C 109.199219 118.160156 118.21875 109.777344 130.699219 106.488281 C 128.335938 108.394531 127 111.269531 125.242188 113.648438 C 124.945312 114.046875 124.480469 114.324219 123.949219 114.425781 C 123.078125 114.59375 122.195312 114.878906 121.453125 115.226562 C 122.347656 114.996094 123.316406 114.847656 124.265625 114.839844 Z M 124.273438 114.835938 " fill-opacity="1" fill-rule="evenodd"/></g></svg>