<svg width="797" height="729" viewBox="0 0 797 729" fill="none" xmlns="http://www.w3.org/2000/svg">
<path d="M-59.7733 599.597C93.4786 599.597 291.267 599.597 512.004 599.597C514.175 530.25 514.027 461.247 498.578 393.576C483.128 325.955 459.386 261.342 427.302 199.837C406.868 160.724 380.361 119.935 339.541 99.8605C319.995 90.2426 296.944 88.319 275.374 87.3819C252.964 86.4448 230.703 87.9738 208.639 92.0675C163.919 100.304 123 117.567 85.8325 143.807C63.6207 159.59 -6.91428 216.064 -37.1224 517.08C-44.8718 594.27 -59.7733 599.597 -59.7733 599.597Z" fill="white"/>
<path d="M326.346 333.09C326.346 338.333 326.532 343.576 326.951 348.719C327.369 353.861 327.974 358.905 328.765 363.748C329.555 368.591 330.532 373.235 331.695 377.579C332.858 381.973 334.16 386.017 335.649 389.712C337.137 393.457 338.719 396.753 340.486 399.699C342.207 402.595 344.021 405.041 345.975 407.088C347.882 409.086 349.882 410.584 351.928 411.632C353.975 412.681 356.068 413.18 358.161 413.18C360.254 413.18 362.301 412.681 364.347 411.632C366.394 410.584 368.394 409.086 370.348 407.088C372.255 405.041 374.069 402.595 375.836 399.699C377.557 396.753 379.185 393.457 380.627 389.712C382.115 386.017 383.464 381.973 384.581 377.579C385.743 373.235 386.767 368.591 387.557 363.748C388.348 358.905 388.953 353.861 389.371 348.719C389.744 343.576 389.976 338.333 389.976 333.09C389.976 327.847 389.744 322.604 389.371 317.461C388.953 312.319 388.348 307.325 387.557 302.432C386.767 297.589 385.743 292.995 384.581 288.601C383.464 284.207 382.115 280.163 380.627 276.468C379.185 272.773 377.557 269.427 375.836 266.531C374.069 263.585 372.255 261.139 370.348 259.092C368.394 257.094 366.394 255.596 364.347 254.548C362.301 253.549 360.254 253 358.161 253C356.068 253 353.975 253.549 351.928 254.548C349.882 255.596 347.882 257.094 345.975 259.092C344.021 261.139 342.207 263.585 340.486 266.531C338.719 269.427 337.137 272.773 335.649 276.468C334.16 280.163 332.858 284.207 331.695 288.601C330.532 292.995 329.555 297.589 328.765 302.432C327.974 307.325 327.369 312.319 326.951 317.461C326.532 322.604 326.346 327.847 326.346 333.09Z" fill="black"/>
<path d="M203.319 332.567C203.319 337.81 203.552 343.003 203.924 348.196C204.343 353.339 204.947 358.332 205.738 363.225C206.529 368.069 207.552 372.663 208.669 377.057C209.832 381.401 211.18 385.445 212.669 389.19C214.111 392.885 215.739 396.231 217.46 399.127C219.228 402.073 221.042 404.52 222.949 406.567C224.903 408.564 226.903 410.062 228.949 411.111C230.996 412.109 233.043 412.659 235.136 412.659C237.229 412.659 239.322 412.109 241.369 411.111C243.416 410.062 245.416 408.564 247.323 406.567C249.23 404.52 251.091 402.073 252.812 399.127C254.579 396.231 256.161 392.885 257.649 389.19C259.138 385.445 260.44 381.401 261.603 377.057C262.766 372.663 263.743 368.069 264.534 363.225C265.324 358.332 265.929 353.339 266.348 348.196C266.766 343.003 266.952 337.81 266.952 332.567C266.952 327.274 266.766 322.081 266.348 316.938C265.929 311.795 265.324 306.752 264.534 301.908C263.743 297.065 262.766 292.421 261.603 288.077C260.44 283.683 259.138 279.638 257.649 275.943C256.161 272.198 254.579 268.903 252.812 265.957C251.091 263.061 249.23 260.564 247.323 258.567C245.416 256.569 243.416 255.021 241.369 254.023C239.322 252.974 237.229 252.475 235.136 252.475C233.043 252.475 230.996 252.974 228.949 254.023C226.903 255.021 224.903 256.569 222.949 258.567C221.042 260.564 219.228 263.061 217.46 265.957C215.739 268.903 214.111 272.198 212.669 275.943C211.18 279.638 209.832 283.683 208.669 288.077C207.552 292.421 206.529 297.065 205.738 301.908C204.947 306.752 204.343 311.795 203.924 316.938C203.552 322.081 203.319 327.274 203.319 332.567Z" fill="black"/>
<path d="M446.749 599.5C544.321 599.5 655.827 599.5 796.365 599.5C795.5 555.5 796 558.5 787.818 515.581C777.981 472.529 762.865 431.391 742.438 392.232C729.428 367.33 712.552 341.36 686.562 328.579C674.118 322.456 659.442 321.231 645.708 320.634C631.441 320.038 617.268 321.011 603.22 323.617C574.748 328.862 548.696 339.853 525.032 356.559C510.89 366.608 465.982 407.85 446.749 599.5Z" fill="white"/>
<path d="M678.162 477.071C678.162 480.409 678.28 483.747 678.546 487.021C678.813 490.296 679.198 493.507 679.701 496.59C680.205 499.674 680.827 502.631 681.567 505.396C682.307 508.194 683.137 510.769 684.084 513.121C685.032 515.506 686.039 517.604 687.164 519.479C688.26 521.323 689.415 522.881 690.659 524.184C691.873 525.456 693.146 526.41 694.449 527.077C695.752 527.745 697.085 528.063 698.417 528.063C699.75 528.063 701.053 527.745 702.356 527.077C703.659 526.41 704.932 525.456 706.176 524.184C707.39 522.881 708.545 521.323 709.671 519.479C710.766 517.604 711.803 515.506 712.721 513.121C713.669 510.769 714.527 508.194 715.238 505.396C715.978 502.631 716.63 499.674 717.133 496.59C717.637 493.507 718.022 490.296 718.288 487.021C718.525 483.747 718.673 480.409 718.673 477.071C718.673 473.733 718.525 470.395 718.288 467.121C718.022 463.846 717.637 460.667 717.133 457.552C716.63 454.468 715.978 451.544 715.238 448.746C714.527 445.948 713.669 443.373 712.721 441.021C711.803 438.669 710.766 436.539 709.671 434.695C708.545 432.819 707.39 431.261 706.176 429.958C704.932 428.686 703.659 427.733 702.356 427.065C701.053 426.429 699.75 426.08 698.417 426.08C697.085 426.08 695.752 426.429 694.449 427.065C693.146 427.733 691.873 428.686 690.659 429.958C689.415 431.261 688.26 432.819 687.164 434.695C686.039 436.539 685.032 438.669 684.084 441.021C683.137 443.373 682.307 445.948 681.567 448.746C680.827 451.544 680.205 454.468 679.701 457.552C679.198 460.667 678.813 463.846 678.546 467.121C678.28 470.395 678.162 473.733 678.162 477.071Z" fill="black"/>
<path d="M599.833 476.738C599.833 480.076 599.981 483.382 600.218 486.689C600.484 489.963 600.869 493.142 601.373 496.258C601.876 499.341 602.528 502.266 603.239 505.064C603.979 507.83 604.838 510.405 605.786 512.789C606.704 515.142 607.74 517.272 608.836 519.115C609.961 520.991 611.116 522.549 612.331 523.852C613.574 525.124 614.848 526.078 616.151 526.745C617.454 527.381 618.757 527.731 620.09 527.731C621.422 527.731 622.755 527.381 624.058 526.745C625.361 526.078 626.635 525.124 627.849 523.852C629.063 522.549 630.248 520.991 631.344 519.115C632.469 517.272 633.476 515.142 634.424 512.789C635.371 510.405 636.201 507.83 636.941 505.064C637.681 502.266 638.303 499.341 638.807 496.258C639.31 493.142 639.695 489.963 639.962 486.689C640.228 483.382 640.347 480.076 640.347 476.738C640.347 473.368 640.228 470.062 639.962 466.788C639.695 463.513 639.31 460.302 638.807 457.218C638.303 454.135 637.681 451.178 636.941 448.412C636.201 445.615 635.371 443.04 634.424 440.687C633.476 438.303 632.469 436.205 631.344 434.329C630.248 432.485 629.063 430.895 627.849 429.624C626.635 428.352 625.361 427.367 624.058 426.731C622.755 426.063 621.422 425.745 620.09 425.745C618.757 425.745 617.454 426.063 616.151 426.731C614.848 427.367 613.574 428.352 612.331 429.624C611.116 430.895 609.961 432.485 608.836 434.329C607.74 436.205 606.704 438.303 605.786 440.687C604.838 443.04 603.979 445.615 603.239 448.412C602.528 451.178 601.876 454.135 601.373 457.218C600.869 460.302 600.484 463.513 600.218 466.788C599.981 470.062 599.833 473.368 599.833 476.738Z" fill="black"/>
</svg>
